<svg xmlns="http://www.w3.org/2000/svg" xmlns:xlink="http://www.w3.org/1999/xlink" width="600" zoomAndPan="magnify" viewBox="0 0 450 149.999998" height="200" preserveAspectRatio="xMidYMid meet" version="1.0"><defs><clipPath id="66a78ba6fd"><path d="M 0 25.726562 L 439 25.726562 L 439 102.367188 L 0 102.367188 Z M 0 25.726562 " clip-rule="nonzero"/></clipPath><clipPath id="cd7718a6e3"><path d="M -55.917969 25.726562 L 400.765625 25.726562 C 410.882812 25.726562 420.585938 29.746094 427.742188 36.898438 C 434.894531 44.054688 438.914062 53.757812 438.914062 63.871094 C 438.914062 73.988281 434.894531 83.691406 427.742188 90.847656 C 420.585938 98 410.882812 102.019531 400.765625 102.019531 L -55.917969 102.019531 C -66.035156 102.019531 -75.738281 98 -82.890625 90.847656 C -90.046875 83.691406 -94.066406 73.988281 -94.066406 63.871094 C -94.066406 53.757812 -90.046875 44.054688 -82.890625 36.898438 C -75.738281 29.746094 -66.035156 25.726562 -55.917969 25.726562 " clip-rule="nonzero"/></clipPath></defs><g clip-path="url(#66a78ba6fd)"><g clip-path="url(#cd7718a6e3)"><path fill="#0f1219" d="M -94.066406 25.726562 L 438.902344 25.726562 L 438.902344 102.367188 L -94.066406 102.367188 Z M -94.066406 25.726562 " fill-opacity="1" fill-rule="nonzero"/></g></g></svg>