<svg xmlns="http://www.w3.org/2000/svg" xmlns:xlink="http://www.w3.org/1999/xlink" width="1000" zoomAndPan="magnify" viewBox="0 0 750 749.999995" height="1000" preserveAspectRatio="xMidYMid meet" version="1.0"><defs><g/><clipPath id="1893a15df4"><path d="M 40 150.144531 L 710 150.144531 L 710 605 L 40 605 Z M 40 150.144531 " clip-rule="nonzero"/></clipPath><clipPath id="635b5916fc"><path d="M 112.761719 272 L 385 272 L 385 443 L 112.761719 443 Z M 112.761719 272 " clip-rule="nonzero"/></clipPath><clipPath id="9223a753b5"><path d="M 273 239.347656 L 454 239.347656 L 454 471.847656 L 273 471.847656 Z M 273 239.347656 " clip-rule="nonzero"/></clipPath></defs><g clip-path="url(#1893a15df4)"><path fill="#000000" d="M 375.160156 150.238281 C 368.265625 150.222656 361.382812 150.523438 354.515625 151.136719 C 347.648438 151.753906 340.824219 152.679688 334.039062 153.917969 C 327.257812 155.15625 320.542969 156.699219 313.902344 158.550781 C 307.261719 160.402344 300.71875 162.554688 294.273438 165.003906 C 287.828125 167.453125 281.507812 170.191406 275.316406 173.21875 C 269.121094 176.246094 263.078125 179.550781 257.183594 183.128906 C 251.292969 186.710938 245.574219 190.550781 240.035156 194.652344 C 234.492188 198.753906 229.152344 203.101562 224.007812 207.691406 L 99.984375 207.691406 L 99.984375 255.996094 C 91.070312 262.9375 83.011719 270.753906 75.800781 279.453125 C 68.59375 288.148438 62.40625 297.519531 57.242188 307.5625 C 55.867188 310.261719 54.570312 313 53.355469 315.773438 C 52.144531 318.550781 51.011719 321.355469 49.960938 324.199219 C 48.914062 327.039062 47.949219 329.910156 47.070312 332.808594 C 46.191406 335.707031 45.398438 338.628906 44.691406 341.574219 C 43.984375 344.519531 43.363281 347.484375 42.832031 350.464844 C 42.296875 353.449219 41.851562 356.441406 41.496094 359.453125 C 41.140625 362.460938 40.875 365.476562 40.695312 368.5 C 40.515625 371.523438 40.429688 374.550781 40.429688 377.578125 C 40.429688 380.605469 40.515625 383.632812 40.695312 386.65625 C 40.875 389.679688 41.140625 392.695312 41.496094 395.703125 C 41.851562 398.714844 42.296875 401.707031 42.832031 404.691406 C 43.363281 407.671875 43.984375 410.636719 44.691406 413.582031 C 45.398438 416.527344 46.191406 419.449219 47.070312 422.347656 C 47.949219 425.246094 48.914062 428.117188 49.960938 430.957031 C 51.011719 433.800781 52.144531 436.605469 53.355469 439.382812 C 54.570312 442.15625 55.867188 444.894531 57.242188 447.59375 C 62.40625 457.640625 68.59375 467.011719 75.800781 475.710938 C 83.007812 484.410156 91.070312 492.226562 99.984375 499.167969 L 99.984375 547.472656 L 224.007812 547.472656 C 226.582031 549.761719 229.207031 551.992188 231.882812 554.160156 C 234.558594 556.332031 237.28125 558.4375 240.050781 560.484375 C 242.824219 562.53125 245.640625 564.511719 248.5 566.429688 C 251.363281 568.351562 254.265625 570.203125 257.210938 571.988281 C 260.15625 573.773438 263.140625 575.492188 266.164062 577.144531 C 269.1875 578.792969 272.25 580.375 275.34375 581.886719 C 278.4375 583.398438 281.566406 584.839844 284.726562 586.207031 C 287.890625 587.578125 291.078125 588.875 294.300781 590.097656 C 297.519531 591.324219 300.765625 592.476562 304.039062 593.550781 C 307.3125 594.628906 310.605469 595.632812 313.921875 596.558594 C 317.242188 597.484375 320.578125 598.335938 323.933594 599.113281 C 327.292969 599.890625 330.664062 600.585938 334.050781 601.210938 C 337.441406 601.832031 340.84375 602.378906 344.253906 602.847656 C 347.667969 603.3125 351.089844 603.703125 354.519531 604.015625 C 357.953125 604.328125 361.386719 604.5625 364.828125 604.71875 C 368.269531 604.875 371.714844 604.957031 375.160156 604.957031 C 378.605469 604.957031 382.046875 604.875 385.488281 604.71875 C 388.929688 604.5625 392.367188 604.328125 395.796875 604.015625 C 399.230469 603.703125 402.652344 603.3125 406.0625 602.847656 C 409.476562 602.378906 412.878906 601.832031 416.265625 601.210938 C 419.65625 600.585938 423.027344 599.890625 426.382812 599.113281 C 429.742188 598.335938 433.078125 597.484375 436.394531 596.558594 C 439.714844 595.632812 443.007812 594.628906 446.28125 593.550781 C 449.554688 592.476562 452.800781 591.324219 456.019531 590.097656 C 459.238281 588.875 462.429688 587.578125 465.589844 586.207031 C 468.75 584.839844 471.878906 583.398438 474.976562 581.886719 C 478.070312 580.375 481.128906 578.792969 484.15625 577.144531 C 487.179688 575.492188 490.164062 573.773438 493.109375 571.988281 C 496.054688 570.203125 498.957031 568.351562 501.820312 566.429688 C 504.679688 564.511719 507.496094 562.53125 510.265625 560.484375 C 513.039062 558.4375 515.761719 556.332031 518.4375 554.160156 C 521.113281 551.992188 523.738281 549.761719 526.3125 547.472656 L 650.335938 547.472656 L 650.335938 499.167969 C 659.25 492.226562 667.308594 484.410156 674.519531 475.710938 C 681.726562 467.011719 687.914062 457.640625 693.078125 447.59375 C 694.453125 444.894531 695.75 442.15625 696.960938 439.382812 C 698.175781 436.609375 699.308594 433.800781 700.355469 430.957031 C 701.40625 428.117188 702.371094 425.246094 703.25 422.347656 C 704.128906 419.449219 704.921875 416.527344 705.628906 413.582031 C 706.335938 410.636719 706.957031 407.675781 707.488281 404.691406 C 708.019531 401.710938 708.464844 398.714844 708.820312 395.707031 C 709.179688 392.699219 709.445312 389.683594 709.625 386.660156 C 709.800781 383.636719 709.890625 380.613281 709.890625 377.582031 C 709.890625 374.554688 709.800781 371.527344 709.625 368.503906 C 709.445312 365.480469 709.179688 362.464844 708.820312 359.457031 C 708.464844 356.449219 708.023438 353.453125 707.488281 350.472656 C 706.957031 347.492188 706.335938 344.527344 705.628906 341.582031 C 704.921875 338.636719 704.128906 335.714844 703.25 332.816406 C 702.371094 329.917969 701.40625 327.050781 700.355469 324.207031 C 699.308594 321.367188 698.175781 318.558594 696.960938 315.78125 C 695.75 313.007812 694.453125 310.269531 693.078125 307.570312 C 687.914062 297.523438 681.730469 288.152344 674.519531 279.453125 C 667.3125 270.753906 659.25 262.9375 650.335938 255.996094 L 650.335938 207.691406 L 526.3125 207.691406 C 521.167969 203.101562 515.824219 198.753906 510.285156 194.652344 C 504.742188 190.550781 499.027344 186.710938 493.136719 183.128906 C 487.242188 179.550781 481.199219 176.246094 475.003906 173.21875 C 468.808594 170.191406 462.492188 167.453125 456.046875 165.003906 C 449.601562 162.554688 443.058594 160.402344 436.417969 158.550781 C 429.773438 156.699219 423.0625 155.15625 416.28125 153.917969 C 409.496094 152.679688 402.671875 151.753906 395.804688 151.136719 C 388.9375 150.523438 382.054688 150.222656 375.160156 150.238281 Z M 375.160156 150.238281 " fill-opacity="1" fill-rule="nonzero"/></g><path fill="#ffffff" d="M 375.160156 189.457031 C 381.347656 189.449219 387.519531 189.746094 393.679688 190.347656 C 399.839844 190.949219 405.953125 191.855469 412.023438 193.0625 C 418.089844 194.269531 424.085938 195.773438 430.007812 197.574219 C 435.925781 199.375 441.742188 201.464844 447.457031 203.84375 C 453.171875 206.21875 458.753906 208.871094 464.203125 211.800781 C 469.652344 214.730469 474.945312 217.921875 480.082031 221.371094 C 485.214844 224.824219 490.167969 228.523438 494.9375 232.464844 C 499.703125 236.410156 504.265625 240.578125 508.621094 244.972656 L 510.582031 246.929688 L 611.085938 246.929688 L 611.085938 275.601562 L 613.757812 277.597656 L 624.613281 285.730469 C 631.632812 290.996094 637.972656 296.980469 643.632812 303.683594 C 649.292969 310.390625 654.125 317.644531 658.136719 325.445312 C 660.183594 329.46875 661.988281 333.601562 663.550781 337.835938 C 665.113281 342.070312 666.417969 346.386719 667.472656 350.777344 C 668.523438 355.164062 669.316406 359.601562 669.847656 364.085938 C 670.375 368.570312 670.640625 373.066406 670.640625 377.582031 C 670.640625 382.097656 670.375 386.597656 669.847656 391.078125 C 669.316406 395.5625 668.523438 400 667.472656 404.390625 C 666.417969 408.78125 665.113281 413.09375 663.550781 417.328125 C 661.988281 421.566406 660.183594 425.695312 658.136719 429.71875 C 654.125 437.523438 649.292969 444.777344 643.632812 451.480469 C 637.972656 458.183594 631.632812 464.167969 624.613281 469.433594 L 613.757812 477.566406 L 611.085938 479.566406 L 611.085938 508.234375 L 510.582031 508.234375 L 508.621094 510.195312 C 506.445312 512.390625 504.214844 514.527344 501.929688 516.613281 C 499.648438 518.699219 497.3125 520.726562 494.929688 522.695312 C 492.546875 524.664062 490.117188 526.574219 487.640625 528.425781 C 485.160156 530.273438 482.640625 532.0625 480.074219 533.789062 C 477.507812 535.511719 474.902344 537.175781 472.253906 538.769531 C 469.605469 540.367188 466.917969 541.898438 464.195312 543.363281 C 461.472656 544.828125 458.714844 546.222656 455.921875 547.550781 C 453.128906 548.878906 450.304688 550.136719 447.449219 551.328125 C 444.597656 552.515625 441.714844 553.632812 438.804688 554.679688 C 435.894531 555.726562 432.960938 556.703125 430.003906 557.605469 C 427.042969 558.503906 424.066406 559.335938 421.066406 560.089844 C 418.070312 560.84375 415.054688 561.523438 412.019531 562.132812 C 408.988281 562.738281 405.941406 563.269531 402.882812 563.722656 C 399.824219 564.179688 396.757812 564.558594 393.679688 564.863281 C 390.601562 565.167969 387.519531 565.398438 384.429688 565.550781 C 381.34375 565.703125 378.253906 565.777344 375.160156 565.777344 C 372.066406 565.777344 368.976562 565.703125 365.886719 565.550781 C 362.800781 565.398438 359.714844 565.167969 356.640625 564.863281 C 353.5625 564.558594 350.492188 564.179688 347.433594 563.722656 C 344.375 563.269531 341.332031 562.738281 338.296875 562.132812 C 335.265625 561.523438 332.25 560.84375 329.25 560.089844 C 326.253906 559.335938 323.273438 558.503906 320.316406 557.605469 C 317.359375 556.703125 314.425781 555.726562 311.515625 554.679688 C 308.605469 553.632812 305.722656 552.515625 302.867188 551.328125 C 300.015625 550.136719 297.191406 548.878906 294.398438 547.550781 C 291.605469 546.222656 288.847656 544.828125 286.125 543.363281 C 283.402344 541.898438 280.714844 540.367188 278.066406 538.769531 C 275.417969 537.175781 272.8125 535.511719 270.246094 533.789062 C 267.679688 532.0625 265.15625 530.273438 262.679688 528.425781 C 260.203125 526.574219 257.773438 524.664062 255.390625 522.695312 C 253.003906 520.726562 250.671875 518.699219 248.386719 516.613281 C 246.105469 514.527344 243.875 512.390625 241.695312 510.195312 L 239.738281 508.234375 L 139.234375 508.234375 L 139.234375 479.566406 L 136.5625 477.566406 L 125.703125 469.433594 C 118.683594 464.167969 112.347656 458.183594 106.6875 451.480469 C 101.027344 444.777344 96.191406 437.523438 92.183594 429.71875 C 90.132812 425.695312 88.328125 421.566406 86.769531 417.328125 C 85.207031 413.09375 83.902344 408.78125 82.847656 404.390625 C 81.796875 400 81.003906 395.5625 80.472656 391.078125 C 79.941406 386.597656 79.679688 382.097656 79.679688 377.582031 C 79.679688 373.066406 79.941406 368.570312 80.472656 364.085938 C 81.003906 359.601562 81.796875 355.164062 82.847656 350.777344 C 83.902344 346.386719 85.207031 342.070312 86.769531 337.835938 C 88.328125 333.601562 90.132812 329.46875 92.183594 325.445312 C 96.191406 317.640625 101.027344 310.386719 106.683594 303.683594 C 112.34375 296.980469 118.683594 290.996094 125.703125 285.730469 L 136.5625 277.597656 L 139.234375 275.601562 L 139.234375 246.929688 L 239.738281 246.929688 L 241.695312 244.972656 C 246.050781 240.578125 250.613281 236.410156 255.382812 232.464844 C 260.152344 228.523438 265.105469 224.824219 270.238281 221.371094 C 275.371094 217.921875 280.664062 214.730469 286.117188 211.800781 C 291.566406 208.871094 297.148438 206.21875 302.863281 203.84375 C 308.574219 201.464844 314.394531 199.375 320.3125 197.574219 C 326.234375 195.773438 332.226562 194.269531 338.296875 193.0625 C 344.367188 191.855469 350.480469 190.949219 356.640625 190.347656 C 362.796875 189.746094 368.972656 189.449219 375.160156 189.457031 M 375.160156 182.796875 C 368.753906 182.789062 362.359375 183.097656 355.984375 183.722656 C 349.605469 184.347656 343.277344 185.285156 336.992188 186.535156 C 330.710938 187.785156 324.503906 189.34375 318.371094 191.207031 C 312.242188 193.074219 306.21875 195.234375 300.304688 197.695312 C 294.386719 200.15625 288.609375 202.902344 282.964844 205.933594 C 277.320312 208.964844 271.839844 212.269531 266.523438 215.84375 C 261.207031 219.417969 256.078125 223.246094 251.140625 227.328125 C 246.203125 231.410156 241.480469 235.722656 236.96875 240.273438 L 132.574219 240.273438 L 132.574219 272.273438 L 121.707031 280.40625 C 114.285156 285.972656 107.582031 292.304688 101.59375 299.394531 C 95.609375 306.488281 90.496094 314.160156 86.253906 322.410156 C 84.085938 326.667969 82.175781 331.039062 80.523438 335.523438 C 78.871094 340.003906 77.488281 344.570312 76.375 349.214844 C 75.257812 353.859375 74.421875 358.554688 73.859375 363.300781 C 73.300781 368.042969 73.019531 372.804688 73.019531 377.582031 C 73.019531 382.359375 73.300781 387.121094 73.859375 391.867188 C 74.421875 396.609375 75.257812 401.304688 76.375 405.949219 C 77.488281 410.597656 78.871094 415.160156 80.523438 419.644531 C 82.175781 424.125 84.085938 428.496094 86.253906 432.753906 C 90.496094 441.007812 95.609375 448.679688 101.59375 455.769531 C 107.582031 462.863281 114.285156 469.191406 121.707031 474.761719 L 132.574219 482.894531 L 132.574219 514.894531 L 236.96875 514.894531 C 239.222656 517.164062 241.535156 519.375 243.902344 521.53125 C 246.265625 523.6875 248.683594 525.785156 251.152344 527.820312 C 253.621094 529.859375 256.140625 531.832031 258.707031 533.746094 C 261.273438 535.660156 263.882812 537.507812 266.542969 539.292969 C 269.199219 541.074219 271.898438 542.792969 274.640625 544.445312 C 277.382812 546.09375 280.164062 547.675781 282.984375 549.191406 C 285.804688 550.707031 288.660156 552.148438 291.550781 553.523438 C 294.445312 554.894531 297.367188 556.195312 300.324219 557.425781 C 303.277344 558.65625 306.261719 559.8125 309.273438 560.894531 C 312.289062 561.976562 315.324219 562.984375 318.386719 563.914062 C 321.449219 564.847656 324.53125 565.703125 327.636719 566.484375 C 330.742188 567.265625 333.863281 567.96875 337.003906 568.597656 C 340.140625 569.222656 343.292969 569.773438 346.460938 570.242188 C 349.625 570.714844 352.800781 571.109375 355.988281 571.421875 C 359.171875 571.738281 362.363281 571.972656 365.5625 572.132812 C 368.757812 572.289062 371.957031 572.367188 375.160156 572.367188 C 378.359375 572.367188 381.558594 572.289062 384.757812 572.132812 C 387.953125 571.972656 391.144531 571.738281 394.332031 571.421875 C 397.515625 571.109375 400.691406 570.714844 403.859375 570.242188 C 407.027344 569.773438 410.179688 569.222656 413.316406 568.597656 C 416.457031 567.96875 419.578125 567.265625 422.683594 566.484375 C 425.785156 565.703125 428.871094 564.847656 431.933594 563.914062 C 434.996094 562.984375 438.03125 561.976562 441.042969 560.894531 C 444.058594 559.8125 447.042969 558.65625 449.996094 557.425781 C 452.953125 556.195312 455.875 554.894531 458.765625 553.523438 C 461.660156 552.148438 464.515625 550.707031 467.335938 549.191406 C 470.15625 547.675781 472.9375 546.09375 475.679688 544.445312 C 478.421875 542.792969 481.121094 541.074219 483.777344 539.292969 C 486.433594 537.507812 489.046875 535.660156 491.613281 533.746094 C 494.179688 531.832031 496.699219 529.859375 499.167969 527.820312 C 501.636719 525.785156 504.054688 523.6875 506.417969 521.53125 C 508.785156 519.375 511.09375 517.164062 513.351562 514.894531 L 617.746094 514.894531 L 617.746094 482.894531 L 628.613281 474.761719 C 636.035156 469.191406 642.738281 462.863281 648.722656 455.769531 C 654.710938 448.679688 659.824219 441.007812 664.066406 432.753906 C 666.234375 428.496094 668.144531 424.125 669.796875 419.644531 C 671.449219 415.160156 672.832031 410.597656 673.945312 405.949219 C 675.058594 401.304688 675.898438 396.609375 676.460938 391.867188 C 677.019531 387.121094 677.300781 382.359375 677.300781 377.582031 C 677.300781 372.804688 677.019531 368.042969 676.460938 363.300781 C 675.898438 358.554688 675.058594 353.859375 673.945312 349.214844 C 672.832031 344.570312 671.449219 340.003906 669.796875 335.523438 C 668.144531 331.039062 666.234375 326.667969 664.066406 322.410156 C 659.824219 314.160156 654.710938 306.488281 648.722656 299.394531 C 642.738281 292.304688 636.035156 285.972656 628.613281 280.40625 L 617.746094 272.273438 L 617.746094 240.273438 L 513.351562 240.273438 C 508.839844 235.722656 504.117188 231.410156 499.179688 227.328125 C 494.238281 223.246094 489.113281 219.417969 483.796875 215.84375 C 478.480469 212.269531 473 208.964844 467.355469 205.933594 C 461.710938 202.902344 455.929688 200.15625 450.015625 197.695312 C 444.097656 195.234375 438.078125 193.074219 431.945312 191.207031 C 425.816406 189.34375 419.609375 187.785156 413.328125 186.535156 C 407.042969 185.285156 400.710938 184.347656 394.335938 183.722656 C 387.957031 183.097656 381.566406 182.789062 375.160156 182.796875 Z M 375.160156 182.796875 " fill-opacity="1" fill-rule="nonzero"/><path fill="#ffffff" d="M 431.109375 348.792969 C 428.152344 355.027344 484.457031 384.527344 491.808594 369.585938 C 499.160156 354.640625 434.066406 342.5625 431.109375 348.792969 Z M 431.109375 348.792969 " fill-opacity="1" fill-rule="nonzero"/><path fill="#ffffff" d="M 595.101562 384.0625 C 597.730469 381.214844 598.511719 378.304688 598.371094 376.535156 C 598.203125 374.472656 596.660156 362.140625 596.1875 359.882812 C 595.457031 356.375 592.371094 354.808594 589.660156 354.808594 C 586.828125 354.777344 520.246094 354.078125 516.867188 354.078125 C 514.296875 354.078125 513.054688 355.441406 512.542969 356.253906 C 511.234375 358.339844 511.757812 361.132812 512.683594 363.050781 C 513.125 363.972656 513.800781 365.289062 514.730469 367.105469 C 516.050781 369.675781 517.863281 373.199219 520.152344 377.824219 C 524.699219 387.011719 533.777344 393.128906 563.320312 393.128906 C 582.683594 393.128906 591.292969 388.199219 595.101562 384.0625 Z M 516.402344 358.746094 C 516.433594 358.726562 516.578125 358.679688 516.867188 358.679688 C 520.21875 358.679688 588.921875 359.402344 589.636719 359.410156 C 590.164062 359.410156 591.414062 359.542969 591.679688 360.820312 C 591.765625 361.230469 591.90625 362.121094 592.074219 363.28125 L 517.53125 362.453125 C 517.25 361.902344 517.019531 361.433594 516.832031 361.050781 C 516.3125 359.96875 516.304688 358.933594 516.402344 358.746094 Z M 519.902344 367.089844 L 592.703125 367.894531 C 592.894531 369.394531 593.089844 370.9375 593.261719 372.324219 L 522.160156 371.539062 C 521.320312 369.875 520.566406 368.386719 519.902344 367.089844 Z M 524.480469 376.167969 L 593.78125 376.9375 C 593.777344 377.167969 593.675781 378.820312 591.714844 380.945312 C 591.621094 381.054688 591.511719 381.164062 591.398438 381.28125 L 527.671875 380.613281 C 526.214844 379.183594 525.25 377.667969 524.480469 376.167969 Z M 535.8125 385.304688 L 583.503906 385.800781 C 579.0625 387.335938 572.621094 388.519531 563.320312 388.519531 C 550.050781 388.519531 541.492188 387.25 535.8125 385.304688 Z M 535.8125 385.304688 " fill-opacity="1" fill-rule="nonzero"/><path fill="#ffffff" d="M 502.898438 326.195312 C 475.488281 307.042969 456.9375 295.148438 456.9375 295.148438 C 447.28125 288.5625 432.039062 287.148438 422.789062 286.746094 C 422.703125 286.742188 422.617188 286.738281 422.535156 286.734375 L 388.910156 324.847656 C 445.03125 323.945312 502.898438 326.195312 502.898438 326.195312 Z M 502.898438 326.195312 " fill-opacity="1" fill-rule="nonzero"/><path fill="#ffffff" d="M 489.085938 348.457031 C 451.996094 331.945312 382.734375 333.132812 382.734375 333.132812 C 382.734375 333.132812 462.183594 340.167969 487.003906 352.445312 C 502.59375 360.15625 518.535156 389.253906 518.535156 389.253906 C 518.535156 389.253906 507.636719 356.71875 489.085938 348.457031 Z M 489.085938 348.457031 " fill-opacity="1" fill-rule="nonzero"/><path fill="#ffffff" d="M 314.230469 404.480469 L 316.378906 401.660156 L 247.660156 400.351562 Z M 314.230469 404.480469 " fill-opacity="1" fill-rule="nonzero"/><path fill="#ffffff" d="M 636.949219 431.613281 L 589.578125 431.613281 C 592.925781 428.605469 595.175781 424.945312 595.894531 420.941406 C 596.039062 420.9375 596.183594 420.933594 596.320312 420.929688 C 596.453125 420.929688 596.601562 420.929688 596.777344 420.929688 C 600.136719 420.929688 611.25 420.597656 615.550781 416.359375 C 616.804688 415.117188 617.46875 413.59375 617.46875 411.949219 C 617.46875 406.339844 615.277344 402.65625 614.074219 401.066406 C 613.875 395.320312 612.984375 370.765625 612.347656 366.90625 C 611.8125 363.6875 609.390625 359.578125 606.019531 356.171875 C 605.769531 355.914062 580.179688 330.742188 512.585938 322.335938 C 508.027344 319.179688 483.710938 302.410156 460.507812 287.394531 C 453.847656 283.078125 443.425781 279.792969 430.78125 277.390625 L 426.660156 282.0625 C 440.6875 284.507812 451.316406 287.84375 457.59375 291.902344 C 481.390625 307.304688 510.445312 327.484375 510.59375 327.503906 L 510.601562 327.507812 L 510.601562 327.503906 C 564.570312 333.988281 593.957031 352.191406 601.632812 359.398438 C 599.246094 363.710938 598.636719 373.574219 607.972656 382.824219 C 608.296875 390.003906 608.589844 397.886719 608.738281 402.160156 L 608.796875 403.207031 L 609.5 403.945312 C 609.605469 404.058594 612.09375 406.730469 612.09375 411.949219 C 612.09375 412.046875 612.09375 412.21875 611.773438 412.535156 C 610.328125 413.964844 606.335938 414.84375 602.3125 415.261719 C 601.269531 413.265625 598.5 408.0625 597.308594 406.800781 C 595.828125 405.230469 594.78125 404.273438 590.242188 404.445312 C 585.703125 404.617188 543.722656 405.402344 541.015625 405.578125 C 538.3125 405.753906 536.738281 405.753906 534.121094 408.109375 C 532.058594 409.964844 527.347656 415.4375 525.4375 417.683594 C 495.6875 418.589844 466.234375 419.488281 457.289062 419.761719 C 456.917969 405.277344 453.683594 390.796875 448.28125 379.652344 C 441.117188 364.863281 430.796875 357.046875 418.429688 357.046875 C 415.890625 357.046875 413.425781 357.40625 411.070312 358.082031 L 428.339844 372.691406 L 422.59375 376.683594 C 431.664062 378.726562 438.644531 391.179688 438.644531 406.25 C 438.644531 422.746094 430.277344 436.121094 419.964844 436.121094 C 414.851562 436.121094 410.214844 432.828125 406.84375 427.503906 C 409.917969 431.375 413.839844 433.695312 418.117188 433.695312 C 427.984375 433.695312 435.992188 421.324219 435.992188 406.058594 C 435.992188 391.722656 428.929688 379.941406 419.902344 378.554688 L 397.320312 394.25 C 396.679688 397.679688 396.328125 401.3125 396.328125 405.074219 C 396.328125 415.417969 398.933594 424.785156 403.140625 431.609375 L 367.207031 431.609375 C 372.695312 429.757812 376.175781 426.851562 378.28125 424.421875 L 395.300781 425.085938 L 399.714844 425.253906 L 397.835938 421.253906 C 397.78125 421.136719 392.992188 410.785156 392.730469 397.441406 L 376.988281 408.378906 L 388.570312 409.097656 C 389.394531 413.429688 390.484375 417.035156 391.378906 419.558594 L 362.515625 418.4375 L 324.675781 444.734375 C 352.273438 446.074219 378.71875 446.957031 400.527344 446.957031 C 447.507812 446.960938 636.949219 431.613281 636.949219 431.613281 Z M 462.445312 424.980469 C 476.523438 424.550781 507.535156 423.605469 536.460938 422.726562 C 537.453125 426.03125 539.507812 429.058594 542.351562 431.613281 L 459.167969 431.613281 C 460.40625 429.605469 461.515625 427.386719 462.445312 424.980469 Z M 418.117188 427.496094 C 416.445312 427.496094 414.839844 427.042969 413.359375 426.203125 C 414.300781 423.789062 415.660156 420.300781 416.496094 418.160156 C 417.019531 418.328125 417.558594 418.417969 418.117188 418.417969 C 418.648438 418.417969 419.167969 418.332031 419.671875 418.175781 C 420.511719 420.328125 421.875 423.824219 422.816406 426.230469 C 421.347656 427.054688 419.765625 427.496094 418.117188 427.496094 Z M 431.980469 406.058594 C 431.980469 411.082031 430.863281 415.699219 428.996094 419.351562 C 427.804688 417.230469 426.082031 414.152344 425.023438 412.257812 C 425.550781 410.847656 425.910156 409.257812 426.042969 407.558594 C 427.640625 406.984375 430.21875 406.058594 431.972656 405.421875 C 431.976562 405.632812 431.980469 405.84375 431.980469 406.058594 Z M 421.964844 385.457031 C 425.152344 386.878906 427.867188 390.019531 429.664062 394.1875 C 428.007812 395.269531 425.582031 396.851562 424.074219 397.839844 C 423.34375 396.578125 422.457031 395.550781 421.449219 394.832031 C 421.589844 392.277344 421.816406 388.203125 421.964844 385.457031 Z M 418.117188 399.628906 C 420.414062 399.628906 422.277344 402.507812 422.277344 406.058594 C 422.277344 409.609375 420.414062 412.492188 418.117188 412.492188 C 415.820312 412.492188 413.957031 409.609375 413.957031 406.058594 C 413.957031 402.507812 415.820312 399.628906 418.117188 399.628906 Z M 414.335938 385.421875 C 414.492188 388.179688 414.710938 392.238281 414.855469 394.785156 C 413.839844 395.484375 412.945312 396.5 412.210938 397.753906 C 410.683594 396.757812 408.257812 395.171875 406.605469 394.097656 C 408.417969 389.941406 411.144531 386.816406 414.335938 385.421875 Z M 404.257812 405.3125 C 406.019531 405.945312 408.585938 406.871094 410.171875 407.441406 C 410.300781 409.148438 410.648438 410.75 411.171875 412.171875 C 410.105469 414.078125 408.378906 417.160156 407.195312 419.277344 C 405.351562 415.632812 404.25 411.046875 404.25 406.058594 C 404.25 405.808594 404.253906 405.5625 404.257812 405.3125 Z M 404.257812 405.3125 " fill-opacity="1" fill-rule="nonzero"/><g clip-path="url(#635b5916fc)"><path fill="#ffffff" d="M 243.828125 431.613281 C 246.917969 428.871094 249.527344 424.664062 251.347656 419.496094 L 301.328125 421.4375 L 305.300781 416.21875 L 243.054688 413.800781 C 241.90625 402.75 235.8125 358.378906 211.984375 358.378906 C 205.386719 358.378906 200.136719 360.699219 196.378906 365.273438 C 186.339844 377.492188 190.992188 401.671875 191.195312 402.695312 C 191.195312 402.695312 189.980469 379.71875 200.53125 368.683594 C 203.5 365.578125 207.003906 363.75 211.984375 363.75 C 216.132812 363.75 219.679688 365.777344 222.707031 369.070312 L 212.332031 369.070312 C 202.011719 369.070312 193.648438 383.851562 193.648438 402.082031 C 193.648438 403.558594 193.710938 405.007812 193.8125 406.433594 C 187.582031 404.472656 176.476562 400.949219 173.757812 399.882812 C 171.476562 398.125 167.273438 383.980469 167.398438 380.914062 C 167.566406 379.789062 167.941406 376.667969 168.414062 372.734375 C 169.089844 367.144531 169.921875 360.183594 170.59375 355.441406 C 171.65625 347.886719 175.554688 333.480469 182.699219 332.996094 C 189.125 332.566406 256.070312 331.3125 293.488281 330.640625 L 292.28125 329.5625 C 259.390625 328.78125 205.117188 327.558594 187.515625 327.558594 L 190.191406 324.707031 C 199.753906 324.542969 211.121094 317.722656 225.339844 309.183594 C 241.28125 299.613281 259.351562 288.761719 280.21875 284.019531 C 300.777344 279.34375 338.15625 276.722656 373.238281 277.488281 C 374.332031 277.511719 375.417969 277.542969 376.5 277.574219 L 384.835938 272.535156 C 345.175781 270.761719 301.625 273.640625 279.027344 278.777344 C 277.863281 279.042969 276.710938 279.335938 275.5625 279.636719 L 199.800781 279.636719 L 259.511719 285.046875 C 245.695312 290.695312 233.234375 298.175781 222.570312 304.578125 C 209.046875 312.695312 197.351562 319.71875 189.164062 319.324219 L 187.925781 319.265625 L 179.519531 328.21875 C 169.046875 331.8125 165.835938 350.664062 165.265625 354.695312 C 164.59375 359.488281 163.753906 366.480469 163.078125 372.097656 C 163.015625 372.636719 162.949219 373.167969 162.886719 373.683594 L 112.761719 373.683594 L 162.0625 381.035156 C 162.320312 385.726562 166.496094 402.761719 171.664062 404.832031 C 174.792969 406.082031 189.253906 410.640625 194.5625 412.300781 C 196.113281 420.742188 199.542969 427.6875 203.976562 431.613281 L 138 431.613281 C 138 431.613281 209.867188 438.039062 285.234375 442.574219 L 293.582031 431.613281 Z M 207.371094 384.726562 C 207.488281 387.214844 207.664062 390.871094 207.773438 393.164062 C 206.988281 393.796875 206.289062 394.714844 205.710938 395.839844 C 204.527344 394.945312 202.636719 393.515625 201.351562 392.546875 C 202.761719 388.804688 204.882812 385.988281 207.371094 384.726562 Z M 214.949219 395.921875 C 214.382812 394.785156 213.6875 393.855469 212.90625 393.210938 C 213.015625 390.910156 213.191406 387.238281 213.308594 384.761719 C 215.789062 386.042969 217.902344 388.871094 219.300781 392.632812 C 218.011719 393.605469 216.125 395.03125 214.949219 395.921875 Z M 221.097656 402.753906 C 221.101562 402.945312 221.105469 403.136719 221.105469 403.328125 C 221.105469 407.855469 220.234375 412.019531 218.777344 415.308594 C 217.855469 413.390625 216.511719 410.621094 215.683594 408.914062 C 216.101562 407.640625 216.375 406.210938 216.480469 404.679688 C 217.722656 404.164062 219.730469 403.328125 221.097656 402.753906 Z M 213.546875 403.328125 C 213.546875 406.527344 212.097656 409.125 210.308594 409.125 C 208.523438 409.125 207.074219 406.527344 207.074219 403.328125 C 207.074219 400.128906 208.523438 397.53125 210.308594 397.53125 C 212.097656 397.53125 213.546875 400.128906 213.546875 403.328125 Z M 213.96875 421.511719 C 212.824219 422.25 211.59375 422.652344 210.308594 422.652344 C 209.007812 422.652344 207.761719 422.242188 206.605469 421.484375 C 207.339844 419.308594 208.398438 416.164062 209.046875 414.238281 C 209.457031 414.386719 209.878906 414.46875 210.308594 414.46875 C 210.726562 414.46875 211.132812 414.390625 211.523438 414.25 C 212.175781 416.1875 213.238281 419.339844 213.96875 421.511719 Z M 201.8125 415.242188 C 200.371094 411.957031 199.519531 407.824219 199.519531 403.332031 C 199.519531 403.101562 199.519531 402.882812 199.523438 402.65625 C 200.894531 403.226562 202.890625 404.0625 204.128906 404.578125 C 204.222656 406.113281 204.496094 407.554688 204.910156 408.839844 C 204.078125 410.558594 202.734375 413.335938 201.8125 415.242188 Z M 212.132812 429.949219 C 208.660156 429.949219 205.464844 427.886719 202.921875 424.429688 C 205.0625 426.839844 207.59375 428.238281 210.308594 428.238281 C 217.992188 428.238281 224.222656 417.082031 224.222656 403.328125 C 224.222656 389.570312 217.992188 378.417969 210.308594 378.417969 C 208.859375 378.417969 207.460938 378.816406 206.148438 379.550781 C 207.980469 378.160156 210.003906 377.382812 212.132812 377.382812 C 220.433594 377.382812 227.164062 389.148438 227.164062 403.664062 C 227.164062 418.183594 220.433594 429.949219 212.132812 429.949219 Z M 212.132812 429.949219 " fill-opacity="1" fill-rule="nonzero"/></g><path fill="#ffffff" d="M 298.4375 283.894531 C 275.792969 284.851562 252.574219 296.9375 246.621094 301.929688 C 240.671875 306.917969 220.757812 324.246094 220.757812 324.246094 L 295.355469 326.589844 L 347.382812 295.15625 C 336.464844 283.484375 324.496094 282.789062 298.4375 283.894531 Z M 298.4375 283.894531 " fill-opacity="1" fill-rule="nonzero"/><g clip-path="url(#9223a753b5)"><path fill="#ffffff" d="M 273.003906 471.304688 L 349.695312 370.546875 L 304.382812 330.09375 L 453.589844 239.953125 L 370.664062 333.945312 L 415.765625 372.097656 Z M 273.003906 471.304688 " fill-opacity="1" fill-rule="nonzero"/></g><path fill="#000000" d="M 194.257812 173.25 C 193.953125 172.375 193.695312 171.488281 193.480469 170.589844 C 193.261719 169.691406 193.089844 168.78125 192.960938 167.867188 C 192.832031 166.949219 192.746094 166.03125 192.707031 165.105469 C 192.667969 164.179688 192.671875 163.257812 192.71875 162.332031 C 192.769531 161.410156 192.863281 160.488281 193 159.574219 C 193.136719 158.660156 193.316406 157.753906 193.542969 156.855469 C 193.765625 155.957031 194.035156 155.074219 194.34375 154.203125 C 194.652344 153.328125 195.003906 152.476562 195.398438 151.636719 C 195.789062 150.800781 196.21875 149.984375 196.691406 149.1875 C 197.160156 148.390625 197.667969 147.621094 198.214844 146.875 C 198.757812 146.128906 199.339844 145.410156 199.953125 144.71875 C 200.566406 144.027344 201.210938 143.367188 201.890625 142.742188 C 202.566406 142.113281 203.273438 141.519531 204.007812 140.960938 C 204.742188 140.402344 205.503906 139.878906 206.289062 139.390625 C 207.074219 138.90625 207.878906 138.460938 208.707031 138.050781 C 209.535156 137.644531 210.382812 137.277344 211.246094 136.953125 C 224.558594 132.71875 238.019531 129.007812 251.621094 125.820312 C 265.21875 122.628906 278.921875 119.96875 292.730469 117.835938 C 306.535156 115.707031 320.402344 114.113281 334.328125 113.058594 C 348.257812 112 362.203125 111.484375 376.171875 111.503906 C 390.140625 111.527344 404.085938 112.089844 418.011719 113.191406 C 431.933594 114.292969 445.796875 115.929688 459.59375 118.105469 C 473.394531 120.277344 487.085938 122.980469 500.679688 126.214844 C 514.269531 129.449219 527.714844 133.203125 541.015625 137.476562 C 541.878906 137.804688 542.722656 138.175781 543.550781 138.585938 C 544.378906 138.996094 545.183594 139.445312 545.964844 139.933594 C 546.75 140.421875 547.507812 140.945312 548.242188 141.507812 C 548.972656 142.070312 549.679688 142.667969 550.355469 143.296875 C 551.03125 143.925781 551.671875 144.585938 552.285156 145.28125 C 552.898438 145.972656 553.472656 146.691406 554.015625 147.441406 C 554.558594 148.1875 555.066406 148.960938 555.53125 149.757812 C 556 150.554688 556.429688 151.375 556.820312 152.214844 C 557.207031 153.050781 557.558594 153.90625 557.863281 154.78125 C 558.171875 155.652344 558.433594 156.539062 558.65625 157.4375 C 558.878906 158.335938 559.054688 159.242188 559.191406 160.15625 C 559.324219 161.074219 559.414062 161.992188 559.460938 162.917969 C 559.507812 163.839844 559.507812 164.765625 559.464844 165.6875 C 559.421875 166.613281 559.335938 167.535156 559.203125 168.449219 C 559.070312 169.367188 558.894531 170.273438 558.675781 171.171875 C 558.457031 172.070312 558.195312 172.957031 557.890625 173.828125 L 537.5625 227.566406 C 537.25 228.476562 536.898438 229.367188 536.5 230.242188 C 536.097656 231.117188 535.65625 231.96875 535.171875 232.796875 C 534.6875 233.625 534.164062 234.429688 533.601562 235.207031 C 533.035156 235.980469 532.433594 236.726562 531.792969 237.445312 C 531.15625 238.160156 530.480469 238.84375 529.773438 239.492188 C 529.066406 240.140625 528.328125 240.75 527.5625 241.324219 C 526.792969 241.898438 525.996094 242.433594 525.175781 242.925781 C 524.351562 243.421875 523.507812 243.871094 522.640625 244.28125 C 521.773438 244.6875 520.890625 245.054688 519.984375 245.375 C 519.082031 245.691406 518.164062 245.96875 517.234375 246.195312 C 516.304688 246.421875 515.363281 246.601562 514.414062 246.734375 C 513.464844 246.867188 512.511719 246.953125 511.554688 246.988281 C 510.597656 247.027344 509.640625 247.015625 508.683594 246.957031 C 507.726562 246.898438 506.777344 246.789062 505.832031 246.632812 C 504.886719 246.480469 503.949219 246.277344 503.023438 246.027344 C 502.101562 245.777344 501.1875 245.484375 500.292969 245.144531 C 490.234375 242.066406 480.074219 239.367188 469.816406 237.039062 C 459.558594 234.714844 449.230469 232.769531 438.828125 231.203125 C 428.425781 229.640625 417.984375 228.464844 407.496094 227.671875 C 397.007812 226.878906 386.507812 226.472656 375.988281 226.457031 C 365.472656 226.441406 354.96875 226.8125 344.480469 227.570312 C 333.992188 228.328125 323.542969 229.472656 313.136719 231.003906 C 302.730469 232.535156 292.394531 234.445312 282.128906 236.742188 C 271.863281 239.035156 261.699219 241.703125 251.628906 244.746094 C 250.730469 245.085938 249.820312 245.378906 248.894531 245.625 C 247.96875 245.871094 247.03125 246.070312 246.085938 246.222656 C 245.140625 246.371094 244.1875 246.476562 243.230469 246.535156 C 242.273438 246.589844 241.316406 246.597656 240.359375 246.558594 C 239.402344 246.519531 238.449219 246.429688 237.5 246.292969 C 236.554688 246.15625 235.613281 245.976562 234.683594 245.746094 C 233.753906 245.515625 232.835938 245.238281 231.933594 244.914062 C 231.03125 244.59375 230.148438 244.226562 229.28125 243.8125 C 228.417969 243.402344 227.574219 242.945312 226.753906 242.449219 C 225.933594 241.953125 225.140625 241.417969 224.371094 240.839844 C 223.605469 240.265625 222.871094 239.652344 222.164062 239 C 221.460938 238.351562 220.789062 237.667969 220.152344 236.949219 C 219.515625 236.230469 218.914062 235.480469 218.351562 234.703125 C 217.789062 233.925781 217.269531 233.121094 216.789062 232.289062 C 216.304688 231.457031 215.867188 230.605469 215.46875 229.730469 C 215.074219 228.855469 214.722656 227.960938 214.414062 227.050781 Z M 194.257812 173.25 " fill-opacity="1" fill-rule="nonzero"/><g fill="#ffffff" fill-opacity="1"><g transform="translate(233.933956, 205.678238)"><g><path d="M -0.0703125 0.015625 L 22.925781 -5.242188 L 24.167969 -13.59375 L 46.1875 -18.628906 L 50.9375 -11.648438 L 74.003906 -16.921875 L 38.769531 -61.660156 L 12.984375 -55.765625 Z M 25.222656 -26.300781 L 28.472656 -45.445312 L 28.609375 -45.476562 L 39.71875 -29.613281 Z M 25.222656 -26.300781 "/></g></g></g><g fill="#ffffff" fill-opacity="1"><g transform="translate(305.525785, 189.146536)"><g><path d="M 37.511719 -1.523438 C 59.761719 -3.0625 71.492188 -12.6875 70.394531 -28.519531 L 68.46875 -56.332031 L 45.648438 -54.75 L 47.476562 -28.367188 C 47.941406 -21.664062 43.960938 -18.089844 36.402344 -17.566406 C 28.84375 -17.042969 24.40625 -20.03125 23.945312 -26.738281 L 22.117188 -53.121094 L -0.703125 -51.542969 L 1.222656 -23.730469 C 2.320312 -7.898438 15.261719 0.0195312 37.511719 -1.523438 Z M 37.511719 -1.523438 "/></g></g></g><g fill="#ffffff" fill-opacity="1"><g transform="translate(378.16699, 184.435643)"><g><path d="M 19.25 1.382812 L 42.066406 3.019531 L 44.625 -32.628906 L 63.160156 -31.300781 L 64.289062 -46.984375 L 4.398438 -51.285156 L 3.269531 -35.597656 L 21.808594 -34.265625 Z M 19.25 1.382812 "/></g></g></g><g fill="#ffffff" fill-opacity="1"><g transform="translate(437.286662, 187.767925)"><g><path d="M 39.382812 10.597656 C 62.128906 15.660156 79.421875 8.378906 83.039062 -7.875 C 86.660156 -24.132812 74.089844 -38.0625 51.34375 -43.128906 C 28.597656 -48.191406 11.304688 -40.910156 7.683594 -24.652344 C 4.066406 -8.394531 16.636719 5.535156 39.382812 10.597656 Z M 42.800781 -4.75 C 33.519531 -6.816406 28.460938 -12.703125 30.011719 -19.683594 C 31.566406 -26.660156 38.644531 -29.84375 47.925781 -27.777344 C 57.207031 -25.710938 62.265625 -19.824219 60.710938 -12.847656 C 59.160156 -5.871094 52.078125 -2.6875 42.800781 -4.75 Z M 42.800781 -4.75 "/></g></g></g><path fill="#000000" d="M 718.773438 495.992188 C 719.367188 496.859375 719.917969 497.753906 720.425781 498.671875 C 720.933594 499.59375 721.398438 500.535156 721.8125 501.5 C 722.230469 502.464844 722.601562 503.449219 722.921875 504.449219 C 723.242188 505.449219 723.515625 506.464844 723.742188 507.492188 C 723.964844 508.519531 724.140625 509.554688 724.261719 510.597656 C 724.386719 511.644531 724.460938 512.691406 724.484375 513.742188 C 724.507812 514.792969 724.480469 515.84375 724.402344 516.890625 C 724.324219 517.941406 724.195312 518.984375 724.015625 520.019531 C 723.835938 521.054688 723.605469 522.078125 723.328125 523.09375 C 723.050781 524.109375 722.726562 525.105469 722.351562 526.089844 C 721.976562 527.070312 721.554688 528.03125 721.089844 528.976562 C 720.621094 529.917969 720.109375 530.832031 719.554688 531.726562 C 719 532.617188 718.402344 533.480469 717.761719 534.316406 C 717.121094 535.152344 716.445312 535.953125 715.726562 536.722656 C 715.011719 537.492188 714.257812 538.222656 713.472656 538.921875 C 712.683594 539.617188 711.867188 540.273438 711.015625 540.890625 C 704.8125 544.910156 698.535156 548.816406 692.191406 552.609375 C 685.847656 556.40625 679.441406 560.082031 672.964844 563.648438 C 666.488281 567.210938 659.949219 570.660156 653.351562 573.988281 C 646.753906 577.320312 640.097656 580.53125 633.382812 583.621094 C 626.667969 586.710938 619.902344 589.683594 613.082031 592.53125 C 606.261719 595.378906 599.390625 598.105469 592.472656 600.707031 C 585.554688 603.3125 578.59375 605.789062 571.585938 608.140625 C 564.578125 610.496094 557.53125 612.722656 550.445312 614.820312 C 543.359375 616.921875 536.238281 618.894531 529.082031 620.742188 C 521.925781 622.585938 514.734375 624.300781 507.515625 625.890625 C 500.300781 627.476562 493.054688 628.933594 485.785156 630.261719 C 478.511719 631.589844 471.21875 632.789062 463.90625 633.855469 C 456.59375 634.921875 449.261719 635.855469 441.914062 636.660156 C 434.570312 637.460938 427.210938 638.132812 419.839844 638.675781 C 412.46875 639.214844 405.089844 639.621094 397.703125 639.898438 C 390.316406 640.171875 382.929688 640.316406 375.539062 640.328125 C 368.148438 640.335938 360.757812 640.214844 353.371094 639.960938 C 345.984375 639.707031 338.605469 639.320312 331.234375 638.800781 C 323.859375 638.28125 316.5 637.632812 309.148438 636.847656 C 301.800781 636.066406 294.46875 635.152344 287.152344 634.105469 C 279.835938 633.0625 272.539062 631.886719 265.265625 630.578125 C 257.988281 629.273438 250.742188 627.835938 243.519531 626.269531 C 236.292969 624.699219 229.101562 623.003906 221.941406 621.179688 C 214.777344 619.355469 207.648438 617.402344 200.558594 615.324219 C 193.464844 613.242188 186.410156 611.035156 179.398438 608.703125 C 172.386719 606.371094 165.414062 603.914062 158.492188 601.332031 C 151.566406 598.746094 144.6875 596.042969 137.859375 593.210938 C 131.03125 590.382812 124.253906 587.433594 117.53125 584.359375 C 110.808594 581.289062 104.144531 578.097656 97.535156 574.785156 C 90.925781 571.476562 84.378906 568.046875 77.894531 564.5 C 71.410156 560.953125 64.988281 557.292969 58.632812 553.519531 C 52.277344 549.742188 45.992188 545.855469 39.777344 541.851562 C 38.925781 541.238281 38.105469 540.582031 37.316406 539.890625 C 36.527344 539.195312 35.773438 538.464844 35.054688 537.699219 C 34.335938 536.929688 33.652344 536.128906 33.011719 535.296875 C 32.371094 534.464844 31.769531 533.601562 31.210938 532.710938 C 30.65625 531.820312 30.140625 530.90625 29.671875 529.964844 C 29.199219 529.023438 28.777344 528.0625 28.398438 527.082031 C 28.023438 526.101562 27.695312 525.105469 27.414062 524.089844 C 27.132812 523.078125 26.898438 522.054688 26.71875 521.019531 C 26.535156 519.980469 26.40625 518.941406 26.324219 517.890625 C 26.242188 516.84375 26.210938 515.792969 26.230469 514.742188 C 26.25 513.691406 26.320312 512.644531 26.441406 511.597656 C 26.5625 510.554688 26.734375 509.519531 26.957031 508.492188 C 27.175781 507.464844 27.449219 506.449219 27.765625 505.445312 C 28.085938 504.445312 28.453125 503.460938 28.867188 502.492188 C 29.28125 501.527344 29.742188 500.582031 30.246094 499.660156 C 30.75 498.738281 31.300781 497.84375 31.890625 496.976562 L 70.058594 443.992188 C 70.667969 443.085938 71.320312 442.210938 72.015625 441.371094 C 72.710938 440.527344 73.449219 439.722656 74.222656 438.957031 C 75 438.1875 75.8125 437.460938 76.664062 436.777344 C 77.511719 436.089844 78.394531 435.449219 79.308594 434.851562 C 80.222656 434.253906 81.164062 433.703125 82.132812 433.199219 C 83.101562 432.699219 84.09375 432.246094 85.109375 431.839844 C 86.121094 431.4375 87.15625 431.085938 88.203125 430.785156 C 89.253906 430.488281 90.316406 430.242188 91.390625 430.046875 C 92.464844 429.855469 93.546875 429.714844 94.636719 429.632812 C 95.722656 429.546875 96.8125 429.515625 97.90625 429.542969 C 98.996094 429.566406 100.082031 429.644531 101.167969 429.78125 C 102.25 429.914062 103.324219 430.101562 104.386719 430.34375 C 105.453125 430.585938 106.503906 430.878906 107.539062 431.226562 C 108.574219 431.574219 109.589844 431.972656 110.582031 432.421875 C 111.578125 432.871094 112.546875 433.371094 113.492188 433.914062 C 114.4375 434.460938 115.355469 435.054688 116.238281 435.691406 C 121.066406 438.703125 125.945312 441.632812 130.871094 444.472656 C 135.800781 447.3125 140.777344 450.066406 145.800781 452.734375 C 150.828125 455.402344 155.898438 457.980469 161.011719 460.46875 C 166.128906 462.960938 171.285156 465.359375 176.484375 467.667969 C 181.683594 469.976562 186.917969 472.195312 192.195312 474.320312 C 197.472656 476.449219 202.785156 478.480469 208.128906 480.421875 C 213.476562 482.363281 218.859375 484.210938 224.269531 485.960938 C 229.679688 487.714844 235.121094 489.371094 240.589844 490.933594 C 246.0625 492.496094 251.554688 493.964844 257.078125 495.332031 C 262.597656 496.703125 268.140625 497.976562 273.707031 499.152344 C 279.273438 500.332031 284.855469 501.410156 290.460938 502.390625 C 296.0625 503.371094 301.679688 504.253906 307.316406 505.039062 C 312.949219 505.824219 318.59375 506.511719 324.253906 507.097656 C 329.910156 507.683594 335.578125 508.171875 341.25 508.5625 C 346.925781 508.953125 352.605469 509.242188 358.292969 509.433594 C 363.976562 509.621094 369.664062 509.714844 375.351562 509.707031 C 381.039062 509.699219 386.726562 509.589844 392.410156 509.382812 C 398.09375 509.175781 403.773438 508.871094 409.449219 508.464844 C 415.121094 508.058594 420.785156 507.554688 426.441406 506.949219 C 432.097656 506.347656 437.742188 505.644531 443.375 504.84375 C 449.003906 504.042969 454.621094 503.144531 460.222656 502.148438 C 465.820312 501.148438 471.402344 500.054688 476.964844 498.863281 C 482.527344 497.671875 488.066406 496.382812 493.582031 494.996094 C 499.101562 493.609375 504.589844 492.125 510.054688 490.550781 C 515.523438 488.972656 520.957031 487.296875 526.363281 485.53125 C 531.769531 483.761719 537.144531 481.898438 542.488281 479.945312 C 547.828125 477.988281 553.132812 475.9375 558.40625 473.796875 C 563.675781 471.65625 568.90625 469.421875 574.097656 467.097656 C 579.289062 464.773438 584.441406 462.359375 589.546875 459.855469 C 594.65625 457.351562 599.71875 454.757812 604.734375 452.078125 C 609.753906 449.394531 614.722656 446.625 619.640625 443.773438 C 624.5625 440.917969 629.433594 437.976562 634.25 434.949219 C 635.132812 434.308594 636.046875 433.714844 636.992188 433.164062 C 637.933594 432.617188 638.902344 432.117188 639.898438 431.664062 C 640.890625 431.210938 641.90625 430.8125 642.9375 430.460938 C 643.972656 430.109375 645.019531 429.8125 646.085938 429.566406 C 647.148438 429.324219 648.222656 429.132812 649.304688 428.996094 C 650.386719 428.859375 651.476562 428.773438 652.566406 428.746094 C 653.65625 428.71875 654.75 428.746094 655.835938 428.828125 C 656.925781 428.910156 658.007812 429.042969 659.082031 429.234375 C 660.15625 429.425781 661.21875 429.667969 662.269531 429.964844 C 663.320312 430.261719 664.355469 430.609375 665.371094 431.011719 C 666.386719 431.410156 667.378906 431.859375 668.347656 432.359375 C 669.320312 432.859375 670.261719 433.40625 671.179688 434.003906 C 672.09375 434.597656 672.976562 435.238281 673.828125 435.921875 C 674.679688 436.601562 675.496094 437.328125 676.273438 438.09375 C 677.054688 438.859375 677.792969 439.660156 678.488281 440.5 C 679.1875 441.339844 679.84375 442.210938 680.453125 443.117188 Z M 718.773438 495.992188 " fill-opacity="1" fill-rule="nonzero"/><g fill="#ffffff" fill-opacity="1"><g transform="translate(67.02162, 506.349462)"><g><path d="M -0.0703125 -0.0390625 L 23.726562 12.628906 L 31.046875 6.34375 L 53.835938 18.472656 L 52.714844 28.058594 L 76.585938 40.761719 L 79.628906 -24.25 L 52.949219 -38.449219 Z M 41.46875 -3.839844 L 58.601562 -17.949219 L 58.746094 -17.875 L 56.46875 4.140625 Z M 41.46875 -3.839844 "/></g></g></g><g fill="#ffffff" fill-opacity="1"><g transform="translate(146.50297, 548.366608)"><g><path d="M 3.859375 1.335938 L 45.480469 15.714844 C 67.328125 23.265625 82.972656 17.519531 89.136719 -0.316406 C 95.296875 -18.152344 86.539062 -32.328125 64.6875 -39.878906 L 23.070312 -54.257812 Z M 33.398438 -6.609375 L 41.402344 -29.773438 L 55.226562 -24.996094 C 64.183594 -21.902344 67.761719 -16 65.199219 -8.585938 C 62.636719 -1.175781 56.175781 1.261719 47.222656 -1.832031 Z M 33.398438 -6.609375 "/></g></g></g><g fill="#ffffff" fill-opacity="1"><g transform="translate(231.397148, 577.433016)"><g><path d="M 27.988281 4.996094 L 56.9375 10.164062 L 95.34375 -42.726562 L 68.882812 -47.449219 L 46.289062 -13.394531 L 46.128906 -13.421875 L 36.714844 -53.195312 L 10.335938 -57.902344 Z M 27.988281 4.996094 "/></g></g></g><g fill="#ffffff" fill-opacity="1"><g transform="translate(318.690913, 591.463024)"><g><path d="M 4.074219 0.277344 L 29.992188 2.042969 L 33.988281 -56.640625 L 8.070312 -58.40625 Z M 4.074219 0.277344 "/></g></g></g><g fill="#ffffff" fill-opacity="1"><g transform="translate(354.730346, 594.951932)"><g><path d="M 39.082031 0.308594 C 62.433594 -0.484375 76.917969 -9.636719 76.410156 -22.210938 C 76.03125 -33.394531 66.859375 -38.640625 45.894531 -39.8125 L 36.234375 -40.300781 C 29.273438 -40.636719 26.222656 -41.433594 26.257812 -42.824219 C 26.265625 -45.03125 31.777344 -46.363281 39.53125 -46.707031 C 47.9375 -47.074219 57.882812 -45.449219 65.351562 -42.1875 L 70.886719 -57.332031 C 62.519531 -60.644531 50.691406 -62.289062 38.769531 -61.882812 C 15.746094 -61.101562 0.644531 -53.316406 1.011719 -40.085938 C 1.382812 -29.144531 10.222656 -23.96875 30.453125 -22.777344 L 39.871094 -22.195312 C 47.730469 -21.808594 51.117188 -20.859375 51.171875 -19.144531 C 51.246094 -17.023438 46.953125 -15.898438 39.929688 -15.660156 C 29.5625 -15.308594 16.804688 -17.898438 8.496094 -21.785156 L 1.433594 -5.933594 C 10.484375 -1.746094 26.019531 0.753906 39.082031 0.308594 Z M 39.082031 0.308594 "/></g></g></g><g fill="#ffffff" fill-opacity="1"><g transform="translate(436.606099, 592.490212)"><g><path d="M 46.121094 -6.742188 C 72.277344 -11.746094 87.117188 -27.226562 83.539062 -45.921875 C 79.964844 -64.617188 60.460938 -73.527344 34.304688 -68.523438 C 8.144531 -63.523438 -6.691406 -48.042969 -3.117188 -29.347656 C 0.457031 -10.652344 19.960938 -1.738281 46.121094 -6.742188 Z M 42.742188 -24.394531 C 32.070312 -22.351562 24.09375 -26.234375 22.558594 -34.257812 C 21.023438 -42.28125 27.007812 -48.832031 37.679688 -50.871094 C 48.351562 -52.914062 56.328125 -49.035156 57.863281 -41.007812 C 59.398438 -32.984375 53.414062 -26.433594 42.742188 -24.394531 Z M 42.742188 -24.394531 "/></g></g></g><g fill="#ffffff" fill-opacity="1"><g transform="translate(531.167076, 573.8579)"><g><path d="M 66 -22.417969 C 71.371094 -24.386719 77.808594 -28.65625 80.160156 -32.214844 L 73.484375 -40.472656 C 72.894531 -39.472656 71.222656 -38.335938 70.070312 -37.914062 C 67.769531 -37.074219 66.03125 -37.308594 64.375 -38.265625 L 58.824219 -41.542969 C 56.929688 -42.675781 54.949219 -43.339844 53.273438 -43.164062 L 53.246094 -43.242188 C 62.558594 -49.171875 66.128906 -57.003906 63.09375 -65.289062 C 58.855469 -76.871094 47.828125 -80.144531 32.175781 -74.414062 L -16.382812 -56.640625 L 3.835938 -1.402344 L 28.382812 -10.390625 L 22.207031 -27.269531 L 28.726562 -29.65625 C 32.484375 -31.03125 36.386719 -31.066406 39.992188 -28.820312 L 44.179688 -26.175781 C 49.632812 -22.691406 56.332031 -18.882812 66 -22.417969 Z M 17.433594 -40.308594 L 13.21875 -51.816406 L 29.332031 -57.714844 C 34.238281 -59.511719 37.761719 -58.449219 39.109375 -54.769531 C 40.457031 -51.085938 38.453125 -48.003906 33.464844 -46.179688 Z M 17.433594 -40.308594 "/></g></g></g><g fill="#ffffff" fill-opacity="1"><g transform="translate(613.305649, 541.983407)"><g/></g></g><g fill="#ffffff" fill-opacity="1"><g transform="translate(630.31999, 534.644577)"><g><path d="M 11.789062 -18.84375 L 29.578125 -28.875 L 23.957031 -38.835938 L 38.972656 -47.304688 L 32.148438 -59.402344 L 17.136719 -50.933594 L 11.515625 -60.894531 L -6.273438 -50.863281 L -0.652344 -40.898438 L -15.523438 -32.511719 L -8.703125 -20.414062 L 6.167969 -28.804688 Z M 11.789062 -18.84375 "/></g></g></g></svg>