<svg xmlns="http://www.w3.org/2000/svg" xmlns:xlink="http://www.w3.org/1999/xlink" width="500" zoomAndPan="magnify" viewBox="0 0 375 299.999988" height="400" preserveAspectRatio="xMidYMid meet" version="1.0"><defs><g/><clipPath id="d99528b1d8"><path d="M 9 30.628906 L 366 30.628906 L 366 273 L 9 273 Z M 9 30.628906 " clip-rule="nonzero"/></clipPath><clipPath id="65f0f813ce"><path d="M 160 98 L 326.535156 98 L 326.535156 189 L 160 189 Z M 160 98 " clip-rule="nonzero"/></clipPath><clipPath id="4db6f093a1"><path d="M 48.285156 95 L 193 95 L 193 187 L 48.285156 187 Z M 48.285156 95 " clip-rule="nonzero"/></clipPath><clipPath id="929c71693e"><path d="M 133 78 L 230 78 L 230 201.738281 L 133 201.738281 Z M 133 78 " clip-rule="nonzero"/></clipPath></defs><g clip-path="url(#d99528b1d8)"><path fill="#2a4829" d="M 187.574219 30.679688 C 183.914062 30.671875 180.257812 30.832031 176.613281 31.160156 C 172.96875 31.484375 169.34375 31.976562 165.746094 32.636719 C 162.144531 33.292969 158.582031 34.117188 155.054688 35.101562 C 151.53125 36.085938 148.054688 37.226562 144.632812 38.53125 C 141.214844 39.832031 137.859375 41.289062 134.570312 42.898438 C 131.28125 44.507812 128.074219 46.265625 124.945312 48.167969 C 121.820312 50.070312 118.785156 52.113281 115.84375 54.292969 C 112.902344 56.472656 110.066406 58.785156 107.335938 61.226562 L 41.5 61.226562 L 41.5 86.90625 C 36.765625 90.59375 32.488281 94.753906 28.660156 99.375 C 24.835938 104 21.550781 108.980469 18.808594 114.320312 C 17.347656 117.191406 16.058594 120.140625 14.945312 123.164062 C 13.832031 126.191406 12.898438 129.269531 12.144531 132.402344 C 11.394531 135.539062 10.828125 138.707031 10.449219 141.90625 C 10.074219 145.109375 9.882812 148.320312 9.882812 151.542969 C 9.882812 154.769531 10.074219 157.980469 10.449219 161.179688 C 10.828125 164.382812 11.394531 167.550781 12.144531 170.683594 C 12.898438 173.820312 13.832031 176.898438 14.945312 179.921875 C 16.058594 182.945312 17.347656 185.894531 18.808594 188.769531 C 21.550781 194.109375 24.835938 199.089844 28.660156 203.714844 C 32.488281 208.339844 36.765625 212.496094 41.5 216.1875 L 41.5 241.867188 L 107.335938 241.867188 C 108.703125 243.085938 110.09375 244.269531 111.515625 245.425781 C 112.933594 246.578125 114.378906 247.699219 115.851562 248.785156 C 117.324219 249.875 118.816406 250.925781 120.335938 251.949219 C 121.855469 252.96875 123.398438 253.953125 124.960938 254.902344 C 126.523438 255.851562 128.109375 256.765625 129.714844 257.640625 C 131.320312 258.519531 132.941406 259.359375 134.585938 260.164062 C 136.230469 260.96875 137.890625 261.734375 139.566406 262.460938 C 141.246094 263.191406 142.9375 263.878906 144.648438 264.53125 C 146.359375 265.179688 148.082031 265.792969 149.816406 266.367188 C 151.554688 266.9375 153.304688 267.472656 155.066406 267.964844 C 156.828125 268.457031 158.597656 268.910156 160.378906 269.320312 C 162.164062 269.734375 163.953125 270.105469 165.75 270.4375 C 167.550781 270.769531 169.355469 271.058594 171.167969 271.308594 C 172.980469 271.554688 174.796875 271.761719 176.617188 271.929688 C 178.4375 272.09375 180.261719 272.21875 182.089844 272.304688 C 183.914062 272.386719 185.742188 272.429688 187.574219 272.429688 C 189.402344 272.429688 191.230469 272.386719 193.054688 272.304688 C 194.882812 272.21875 196.707031 272.09375 198.527344 271.929688 C 200.347656 271.761719 202.164062 271.554688 203.976562 271.308594 C 205.789062 271.058594 207.59375 270.769531 209.394531 270.4375 C 211.191406 270.105469 212.980469 269.734375 214.765625 269.320312 C 216.546875 268.910156 218.316406 268.457031 220.078125 267.964844 C 221.839844 267.472656 223.589844 266.9375 225.328125 266.367188 C 227.0625 265.792969 228.785156 265.179688 230.496094 264.53125 C 232.207031 263.878906 233.898438 263.191406 235.578125 262.460938 C 237.253906 261.734375 238.914062 260.96875 240.558594 260.164062 C 242.203125 259.359375 243.824219 258.519531 245.429688 257.640625 C 247.035156 256.765625 248.621094 255.851562 250.183594 254.902344 C 251.746094 253.953125 253.289062 252.96875 254.808594 251.949219 C 256.328125 250.925781 257.820312 249.875 259.292969 248.785156 C 260.765625 247.699219 262.210938 246.578125 263.628906 245.425781 C 265.050781 244.269531 266.441406 243.085938 267.808594 241.867188 L 333.644531 241.867188 L 333.644531 216.1875 C 338.378906 212.496094 342.65625 208.339844 346.484375 203.714844 C 350.308594 199.089844 353.59375 194.109375 356.335938 188.769531 C 357.796875 185.894531 359.085938 182.949219 360.199219 179.921875 C 361.3125 176.898438 362.246094 173.820312 363 170.6875 C 363.75 167.550781 364.316406 164.382812 364.695312 161.183594 C 365.070312 157.980469 365.261719 154.769531 365.261719 151.546875 C 365.261719 148.324219 365.070312 145.109375 364.695312 141.910156 C 364.316406 138.710938 363.75 135.542969 363 132.40625 C 362.246094 129.273438 361.3125 126.195312 360.199219 123.167969 C 359.085938 120.144531 357.796875 117.199219 356.335938 114.324219 C 353.59375 108.984375 350.3125 104 346.484375 99.375 C 342.660156 94.753906 338.378906 90.59375 333.644531 86.90625 L 333.644531 61.226562 L 267.808594 61.226562 C 265.078125 58.785156 262.242188 56.472656 259.300781 54.292969 C 256.359375 52.113281 253.324219 50.070312 250.199219 48.167969 C 247.070312 46.265625 243.863281 44.507812 240.574219 42.898438 C 237.285156 41.289062 233.929688 39.832031 230.511719 38.53125 C 227.089844 37.226562 223.617188 36.085938 220.089844 35.101562 C 216.5625 34.117188 213 33.292969 209.398438 32.636719 C 205.800781 31.976562 202.175781 31.484375 198.53125 31.160156 C 194.886719 30.832031 191.234375 30.671875 187.574219 30.679688 Z M 187.574219 30.679688 " fill-opacity="1" fill-rule="nonzero"/></g><path fill="#ffffff" d="M 187.574219 51.53125 C 190.855469 51.527344 194.132812 51.683594 197.402344 52.003906 C 200.671875 52.324219 203.917969 52.804688 207.140625 53.449219 C 210.363281 54.089844 213.542969 54.890625 216.6875 55.847656 C 219.828125 56.804688 222.917969 57.914062 225.949219 59.179688 C 228.984375 60.441406 231.945312 61.851562 234.839844 63.410156 C 237.734375 64.964844 240.542969 66.664062 243.269531 68.5 C 245.996094 70.332031 248.621094 72.300781 251.152344 74.394531 C 253.6875 76.492188 256.105469 78.707031 258.417969 81.042969 L 259.460938 82.085938 L 312.808594 82.085938 L 312.808594 97.328125 L 314.230469 98.390625 L 319.992188 102.714844 C 323.71875 105.511719 327.085938 108.695312 330.089844 112.257812 C 333.09375 115.824219 335.660156 119.679688 337.789062 123.828125 C 338.875 125.96875 339.832031 128.164062 340.660156 130.414062 C 341.492188 132.667969 342.183594 134.960938 342.742188 137.292969 C 343.300781 139.628906 343.722656 141.988281 344.003906 144.371094 C 344.285156 146.753906 344.425781 149.148438 344.425781 151.546875 C 344.425781 153.945312 344.285156 156.339844 344.003906 158.722656 C 343.722656 161.105469 343.300781 163.464844 342.742188 165.796875 C 342.183594 168.132812 341.492188 170.425781 340.660156 172.679688 C 339.832031 174.929688 338.875 177.125 337.789062 179.265625 C 335.660156 183.414062 333.09375 187.269531 330.089844 190.832031 C 327.085938 194.398438 323.71875 197.578125 319.992188 200.378906 L 314.230469 204.703125 L 312.808594 205.765625 L 312.808594 221.007812 L 259.460938 221.007812 L 258.417969 222.050781 C 257.261719 223.214844 256.078125 224.355469 254.867188 225.460938 C 253.65625 226.570312 252.417969 227.648438 251.152344 228.695312 C 249.886719 229.742188 248.597656 230.757812 247.28125 231.742188 C 245.964844 232.726562 244.625 233.675781 243.265625 234.59375 C 241.902344 235.511719 240.519531 236.394531 239.113281 237.242188 C 237.707031 238.089844 236.28125 238.90625 234.835938 239.683594 C 233.390625 240.460938 231.925781 241.203125 230.445312 241.910156 C 228.960938 242.617188 227.460938 243.285156 225.945312 243.917969 C 224.433594 244.550781 222.902344 245.144531 221.355469 245.699219 C 219.8125 246.257812 218.253906 246.773438 216.683594 247.253906 C 215.113281 247.734375 213.535156 248.175781 211.941406 248.574219 C 210.351562 248.976562 208.75 249.339844 207.140625 249.660156 C 205.53125 249.984375 203.914062 250.265625 202.289062 250.507812 C 200.664062 250.75 199.039062 250.953125 197.402344 251.113281 C 195.769531 251.277344 194.132812 251.398438 192.492188 251.480469 C 190.855469 251.558594 189.214844 251.601562 187.574219 251.601562 C 185.929688 251.601562 184.289062 251.558594 182.652344 251.480469 C 181.011719 251.398438 179.375 251.277344 177.742188 251.113281 C 176.105469 250.953125 174.480469 250.75 172.855469 250.507812 C 171.230469 250.265625 169.613281 249.984375 168.003906 249.660156 C 166.394531 249.339844 164.792969 248.976562 163.203125 248.574219 C 161.609375 248.175781 160.03125 247.734375 158.460938 247.253906 C 156.890625 246.773438 155.332031 246.257812 153.789062 245.699219 C 152.242188 245.144531 150.710938 244.550781 149.199219 243.917969 C 147.683594 243.285156 146.183594 242.617188 144.699219 241.910156 C 143.21875 241.203125 141.753906 240.460938 140.308594 239.683594 C 138.863281 238.90625 137.4375 238.089844 136.03125 237.242188 C 134.625 236.394531 133.242188 235.511719 131.878906 234.59375 C 130.519531 233.675781 129.179688 232.726562 127.863281 231.742188 C 126.546875 230.757812 125.257812 229.742188 123.992188 228.695312 C 122.726562 227.648438 121.488281 226.570312 120.277344 225.460938 C 119.066406 224.355469 117.882812 223.214844 116.726562 222.050781 L 115.683594 221.007812 L 62.335938 221.007812 L 62.335938 205.765625 L 60.914062 204.703125 L 55.152344 200.378906 C 51.425781 197.578125 48.058594 194.398438 45.054688 190.832031 C 42.050781 187.269531 39.484375 183.414062 37.355469 179.265625 C 36.269531 177.125 35.3125 174.929688 34.484375 172.679688 C 33.652344 170.425781 32.960938 168.132812 32.402344 165.796875 C 31.84375 163.464844 31.421875 161.105469 31.140625 158.722656 C 30.859375 156.339844 30.71875 153.945312 30.71875 151.546875 C 30.71875 149.148438 30.859375 146.753906 31.140625 144.371094 C 31.421875 141.988281 31.84375 139.628906 32.402344 137.292969 C 32.960938 134.960938 33.652344 132.667969 34.484375 130.414062 C 35.3125 128.164062 36.269531 125.96875 37.355469 123.828125 C 39.484375 119.679688 42.050781 115.824219 45.054688 112.257812 C 48.058594 108.695312 51.425781 105.511719 55.152344 102.714844 L 60.914062 98.390625 L 62.335938 97.328125 L 62.335938 82.085938 L 115.683594 82.085938 L 116.726562 81.042969 C 119.039062 78.707031 121.457031 76.492188 123.992188 74.394531 C 126.523438 72.300781 129.148438 70.332031 131.875 68.5 C 134.601562 66.664062 137.410156 64.964844 140.304688 63.410156 C 143.199219 61.851562 146.160156 60.441406 149.195312 59.179688 C 152.226562 57.914062 155.316406 56.804688 158.457031 55.847656 C 161.601562 54.890625 164.78125 54.089844 168.003906 53.449219 C 171.226562 52.804688 174.472656 52.324219 177.742188 52.003906 C 181.011719 51.683594 184.289062 51.527344 187.574219 51.53125 M 187.574219 47.992188 C 184.171875 47.988281 180.777344 48.148438 177.394531 48.480469 C 174.007812 48.8125 170.648438 49.3125 167.3125 49.976562 C 163.976562 50.640625 160.679688 51.46875 157.425781 52.460938 C 154.171875 53.453125 150.976562 54.601562 147.835938 55.910156 C 144.695312 57.21875 141.628906 58.679688 138.632812 60.289062 C 135.636719 61.902344 132.726562 63.660156 129.902344 65.558594 C 127.082031 67.460938 124.359375 69.492188 121.738281 71.664062 C 119.117188 73.832031 116.609375 76.128906 114.214844 78.546875 L 58.796875 78.546875 L 58.796875 95.558594 L 53.03125 99.882812 C 49.089844 102.84375 45.53125 106.207031 42.351562 109.980469 C 39.175781 113.75 36.460938 117.828125 34.210938 122.214844 C 33.058594 124.480469 32.046875 126.800781 31.167969 129.183594 C 30.289062 131.570312 29.554688 133.996094 28.964844 136.464844 C 28.375 138.933594 27.929688 141.429688 27.628906 143.953125 C 27.332031 146.476562 27.183594 149.007812 27.183594 151.546875 C 27.183594 154.085938 27.332031 156.617188 27.628906 159.140625 C 27.929688 161.664062 28.375 164.160156 28.964844 166.628906 C 29.554688 169.097656 30.289062 171.523438 31.167969 173.90625 C 32.046875 176.292969 33.058594 178.613281 34.210938 180.878906 C 36.460938 185.265625 39.175781 189.34375 42.351562 193.113281 C 45.53125 196.882812 49.089844 200.25 53.03125 203.210938 L 58.796875 207.535156 L 58.796875 224.546875 L 114.214844 224.546875 C 115.414062 225.753906 116.640625 226.929688 117.894531 228.078125 C 119.152344 229.222656 120.433594 230.335938 121.746094 231.421875 C 123.054688 232.503906 124.390625 233.554688 125.753906 234.570312 C 127.117188 235.585938 128.503906 236.570312 129.914062 237.519531 C 131.324219 238.464844 132.757812 239.378906 134.214844 240.257812 C 135.667969 241.136719 137.144531 241.976562 138.640625 242.78125 C 140.140625 243.585938 141.65625 244.355469 143.191406 245.085938 C 144.726562 245.8125 146.277344 246.507812 147.847656 247.160156 C 149.414062 247.8125 151 248.425781 152.597656 249.003906 C 154.195312 249.578125 155.808594 250.113281 157.433594 250.609375 C 159.058594 251.105469 160.695312 251.5625 162.34375 251.976562 C 163.992188 252.390625 165.648438 252.765625 167.316406 253.097656 C 168.984375 253.429688 170.65625 253.722656 172.335938 253.972656 C 174.019531 254.222656 175.703125 254.433594 177.394531 254.601562 C 179.085938 254.769531 180.78125 254.894531 182.476562 254.976562 C 184.175781 255.0625 185.871094 255.101562 187.574219 255.101562 C 189.273438 255.101562 190.96875 255.0625 192.667969 254.976562 C 194.363281 254.894531 196.058594 254.769531 197.75 254.601562 C 199.441406 254.433594 201.125 254.222656 202.808594 253.972656 C 204.488281 253.722656 206.160156 253.429688 207.828125 253.097656 C 209.496094 252.765625 211.152344 252.390625 212.800781 251.976562 C 214.449219 251.5625 216.085938 251.105469 217.710938 250.609375 C 219.335938 250.113281 220.949219 249.578125 222.546875 249.003906 C 224.144531 248.425781 225.730469 247.8125 227.300781 247.160156 C 228.867188 246.507812 230.417969 245.8125 231.953125 245.085938 C 233.488281 244.355469 235.003906 243.585938 236.503906 242.78125 C 238 241.976562 239.476562 241.136719 240.929688 240.257812 C 242.386719 239.378906 243.820312 238.464844 245.230469 237.519531 C 246.640625 236.570312 248.027344 235.585938 249.390625 234.570312 C 250.753906 233.554688 252.089844 232.503906 253.398438 231.421875 C 254.710938 230.335938 255.992188 229.222656 257.25 228.078125 C 258.503906 226.929688 259.730469 225.753906 260.929688 224.546875 L 316.347656 224.546875 L 316.347656 207.535156 L 322.113281 203.210938 C 326.054688 200.25 329.613281 196.882812 332.792969 193.113281 C 335.96875 189.34375 338.683594 185.265625 340.933594 180.878906 C 342.085938 178.613281 343.097656 176.292969 343.976562 173.90625 C 344.855469 171.523438 345.589844 169.097656 346.179688 166.628906 C 346.773438 164.160156 347.214844 161.664062 347.515625 159.140625 C 347.8125 156.617188 347.960938 154.085938 347.960938 151.546875 C 347.960938 149.007812 347.8125 146.476562 347.515625 143.953125 C 347.214844 141.429688 346.773438 138.933594 346.179688 136.464844 C 345.589844 133.996094 344.855469 131.570312 343.976562 129.183594 C 343.097656 126.800781 342.085938 124.480469 340.933594 122.214844 C 338.683594 117.828125 335.96875 113.75 332.792969 109.980469 C 329.613281 106.207031 326.054688 102.84375 322.113281 99.882812 L 316.347656 95.558594 L 316.347656 78.546875 L 260.929688 78.546875 C 258.535156 76.128906 256.027344 73.832031 253.40625 71.664062 C 250.785156 69.492188 248.0625 67.460938 245.242188 65.558594 C 242.417969 63.660156 239.507812 61.902344 236.511719 60.289062 C 233.515625 58.679688 230.449219 57.21875 227.308594 55.910156 C 224.167969 54.601562 220.972656 53.453125 217.71875 52.460938 C 214.464844 51.46875 211.167969 50.640625 207.832031 49.976562 C 204.496094 49.3125 201.136719 48.8125 197.75 48.480469 C 194.367188 48.148438 190.972656 47.988281 187.574219 47.992188 Z M 187.574219 47.992188 " fill-opacity="1" fill-rule="nonzero"/><path fill="#ffffff" d="M 217.25 136.238281 C 215.679688 139.558594 245.566406 155.261719 249.464844 147.304688 C 253.367188 139.351562 218.820312 132.921875 217.25 136.238281 Z M 217.25 136.238281 " fill-opacity="1" fill-rule="nonzero"/><path fill="#ffffff" d="M 304.289062 155.011719 C 305.6875 153.496094 306.101562 151.949219 306.023438 151.003906 C 305.9375 149.90625 305.117188 143.34375 304.867188 142.140625 C 304.480469 140.273438 302.839844 139.441406 301.402344 139.441406 C 299.898438 139.425781 264.558594 139.050781 262.765625 139.050781 C 261.402344 139.050781 260.742188 139.777344 260.472656 140.210938 C 259.777344 141.320312 260.054688 142.804688 260.546875 143.828125 C 260.78125 144.320312 261.140625 145.019531 261.632812 145.984375 C 262.332031 147.355469 263.296875 149.230469 264.511719 151.691406 C 266.921875 156.582031 271.742188 159.835938 287.421875 159.835938 C 297.699219 159.835938 302.269531 157.214844 304.289062 155.011719 Z M 262.519531 141.535156 C 262.539062 141.527344 262.613281 141.5 262.765625 141.5 C 264.546875 141.5 301.011719 141.886719 301.390625 141.890625 C 301.671875 141.890625 302.332031 141.960938 302.476562 142.640625 C 302.519531 142.859375 302.59375 143.332031 302.683594 143.949219 L 263.117188 143.511719 C 262.972656 143.21875 262.847656 142.96875 262.75 142.761719 C 262.472656 142.1875 262.46875 141.636719 262.519531 141.535156 Z M 264.378906 145.976562 L 303.015625 146.40625 C 303.121094 147.203125 303.222656 148.023438 303.3125 148.765625 L 265.578125 148.347656 C 265.132812 147.460938 264.730469 146.667969 264.378906 145.976562 Z M 266.808594 150.8125 L 303.589844 151.21875 C 303.585938 151.339844 303.535156 152.222656 302.492188 153.351562 C 302.441406 153.410156 302.382812 153.46875 302.324219 153.53125 L 268.5 153.175781 C 267.726562 152.414062 267.214844 151.609375 266.808594 150.8125 Z M 272.824219 155.671875 L 298.136719 155.9375 C 295.777344 156.753906 292.359375 157.386719 287.421875 157.386719 C 280.378906 157.386719 275.835938 156.707031 272.824219 155.671875 Z M 272.824219 155.671875 " fill-opacity="1" fill-rule="nonzero"/><path fill="#ffffff" d="M 255.351562 124.210938 C 240.804688 114.015625 230.957031 107.683594 230.957031 107.683594 C 225.832031 104.179688 217.742188 103.425781 212.832031 103.210938 C 212.789062 103.210938 212.742188 103.207031 212.699219 103.207031 L 194.851562 123.492188 C 224.636719 123.011719 255.351562 124.210938 255.351562 124.210938 Z M 255.351562 124.210938 " fill-opacity="1" fill-rule="nonzero"/><path fill="#ffffff" d="M 248.019531 136.058594 C 228.335938 127.269531 191.574219 127.902344 191.574219 127.902344 C 191.574219 127.902344 233.742188 131.648438 246.917969 138.183594 C 255.191406 142.289062 263.652344 157.777344 263.652344 157.777344 C 263.652344 157.777344 257.867188 140.457031 248.019531 136.058594 Z M 248.019531 136.058594 " fill-opacity="1" fill-rule="nonzero"/><path fill="#ffffff" d="M 155.214844 165.878906 L 156.355469 164.378906 L 119.882812 163.683594 Z M 155.214844 165.878906 " fill-opacity="1" fill-rule="nonzero"/><g clip-path="url(#65f0f813ce)"><path fill="#ffffff" d="M 326.5 180.320312 L 301.359375 180.320312 C 303.136719 178.722656 304.328125 176.773438 304.710938 174.640625 C 304.789062 174.640625 304.863281 174.636719 304.9375 174.636719 C 305.007812 174.636719 305.085938 174.636719 305.179688 174.636719 C 306.960938 174.636719 312.863281 174.460938 315.144531 172.203125 C 315.808594 171.542969 316.160156 170.730469 316.160156 169.855469 C 316.160156 166.871094 315 164.910156 314.359375 164.0625 C 314.253906 161.003906 313.78125 147.933594 313.445312 145.878906 C 313.160156 144.167969 311.875 141.976562 310.085938 140.164062 C 309.953125 140.03125 296.371094 126.628906 260.492188 122.15625 C 258.074219 120.476562 245.167969 111.550781 232.855469 103.558594 C 229.316406 101.261719 223.789062 99.511719 217.078125 98.234375 L 214.886719 100.71875 C 222.335938 102.023438 227.976562 103.796875 231.304688 105.957031 C 243.9375 114.15625 259.359375 124.898438 259.4375 124.90625 L 259.441406 124.910156 L 259.441406 124.90625 C 288.085938 128.359375 303.683594 138.046875 307.757812 141.882812 C 306.492188 144.179688 306.167969 149.429688 311.121094 154.351562 C 311.292969 158.175781 311.449219 162.371094 311.527344 164.644531 L 311.558594 165.203125 L 311.933594 165.59375 C 311.988281 165.65625 313.308594 167.078125 313.308594 169.855469 C 313.308594 169.90625 313.308594 170 313.136719 170.167969 C 312.371094 170.925781 310.253906 171.394531 308.117188 171.617188 C 307.5625 170.554688 306.09375 167.789062 305.460938 167.113281 C 304.675781 166.28125 304.121094 165.769531 301.710938 165.859375 C 299.300781 165.953125 277.019531 166.371094 275.582031 166.464844 C 274.148438 166.558594 273.3125 166.558594 271.925781 167.8125 C 270.828125 168.800781 268.328125 171.714844 267.316406 172.910156 C 251.527344 173.390625 235.894531 173.871094 231.144531 174.015625 C 230.949219 166.304688 229.234375 158.597656 226.363281 152.664062 C 222.5625 144.792969 217.085938 140.632812 210.519531 140.632812 C 209.171875 140.632812 207.863281 140.824219 206.613281 141.183594 L 215.78125 148.960938 L 212.730469 151.085938 C 217.542969 152.171875 221.25 158.800781 221.25 166.820312 C 221.25 175.601562 216.808594 182.722656 211.335938 182.722656 C 208.621094 182.722656 206.160156 180.96875 204.371094 178.136719 C 206.003906 180.195312 208.082031 181.429688 210.355469 181.429688 C 215.589844 181.429688 219.839844 174.84375 219.839844 166.71875 C 219.839844 159.089844 216.09375 152.816406 211.300781 152.082031 L 199.316406 160.433594 C 198.976562 162.261719 198.789062 164.195312 198.789062 166.195312 C 198.789062 171.703125 200.171875 176.6875 202.40625 180.320312 L 183.332031 180.320312 C 186.246094 179.335938 188.09375 177.789062 189.210938 176.496094 L 198.246094 176.847656 L 200.589844 176.9375 L 199.589844 174.808594 C 199.558594 174.746094 197.019531 169.234375 196.882812 162.132812 L 188.527344 167.953125 L 194.671875 168.335938 C 195.109375 170.640625 195.6875 172.5625 196.164062 173.90625 L 180.84375 173.308594 L 160.761719 187.304688 C 175.40625 188.019531 189.441406 188.488281 201.019531 188.488281 C 225.953125 188.492188 326.5 180.320312 326.5 180.320312 Z M 233.882812 176.789062 C 241.355469 176.5625 257.8125 176.058594 273.167969 175.59375 C 273.695312 177.351562 274.785156 178.960938 276.292969 180.320312 L 232.140625 180.320312 C 232.800781 179.253906 233.386719 178.074219 233.882812 176.789062 Z M 210.355469 178.132812 C 209.46875 178.132812 208.613281 177.890625 207.828125 177.441406 C 208.328125 176.15625 209.050781 174.300781 209.492188 173.160156 C 209.773438 173.25 210.058594 173.296875 210.355469 173.296875 C 210.636719 173.296875 210.914062 173.253906 211.179688 173.171875 C 211.625 174.316406 212.351562 176.175781 212.847656 177.457031 C 212.070312 177.894531 211.230469 178.132812 210.355469 178.132812 Z M 217.710938 166.71875 C 217.710938 169.394531 217.121094 171.851562 216.128906 173.796875 C 215.496094 172.664062 214.582031 171.027344 214.019531 170.019531 C 214.300781 169.269531 214.488281 168.421875 214.5625 167.519531 C 215.410156 167.214844 216.777344 166.71875 217.707031 166.382812 C 217.710938 166.492188 217.710938 166.605469 217.710938 166.71875 Z M 212.398438 155.753906 C 214.089844 156.511719 215.53125 158.183594 216.484375 160.402344 C 215.601562 160.976562 214.316406 161.820312 213.515625 162.34375 C 213.128906 161.671875 212.65625 161.125 212.121094 160.746094 C 212.199219 159.382812 212.316406 157.214844 212.398438 155.753906 Z M 210.355469 163.296875 C 211.574219 163.296875 212.5625 164.832031 212.5625 166.71875 C 212.5625 168.609375 211.574219 170.144531 210.355469 170.144531 C 209.132812 170.144531 208.148438 168.609375 208.148438 166.71875 C 208.148438 164.828125 209.132812 163.296875 210.355469 163.296875 Z M 208.347656 155.734375 C 208.429688 157.203125 208.546875 159.363281 208.621094 160.71875 C 208.085938 161.089844 207.609375 161.632812 207.21875 162.300781 C 206.410156 161.769531 205.121094 160.925781 204.246094 160.351562 C 205.207031 158.140625 206.652344 156.476562 208.347656 155.734375 Z M 203 166.320312 C 203.933594 166.660156 205.296875 167.152344 206.136719 167.457031 C 206.207031 168.363281 206.390625 169.214844 206.667969 169.972656 C 206.101562 170.988281 205.1875 172.628906 204.558594 173.757812 C 203.578125 171.816406 202.992188 169.375 202.992188 166.71875 C 202.992188 166.585938 202.996094 166.453125 203 166.320312 Z M 203 166.320312 " fill-opacity="1" fill-rule="nonzero"/></g><g clip-path="url(#4db6f093a1)"><path fill="#ffffff" d="M 117.847656 180.320312 C 119.488281 178.863281 120.875 176.621094 121.839844 173.875 L 148.367188 174.90625 L 150.476562 172.128906 L 117.441406 170.839844 C 116.828125 164.957031 113.59375 141.339844 100.945312 141.339844 C 97.445312 141.339844 94.660156 142.578125 92.664062 145.011719 C 87.335938 151.515625 89.804688 164.386719 89.914062 164.929688 C 89.914062 164.929688 89.269531 152.699219 94.867188 146.824219 C 96.445312 145.171875 98.304688 144.199219 100.949219 144.199219 C 103.148438 144.199219 105.03125 145.277344 106.640625 147.03125 L 101.132812 147.03125 C 95.65625 147.03125 91.214844 154.898438 91.214844 164.601562 C 91.214844 165.390625 91.25 166.160156 91.304688 166.917969 C 87.996094 165.875 82.101562 164 80.660156 163.433594 C 79.445312 162.496094 77.214844 154.96875 77.28125 153.335938 C 77.375 152.738281 77.574219 151.074219 77.824219 148.984375 C 78.179688 146.007812 78.625 142.300781 78.980469 139.777344 C 79.542969 135.757812 81.613281 128.085938 85.402344 127.832031 C 88.8125 127.601562 124.347656 126.933594 144.207031 126.578125 L 143.566406 126.003906 C 126.109375 125.585938 97.304688 124.9375 87.960938 124.9375 L 89.382812 123.417969 C 94.457031 123.332031 100.488281 119.703125 108.035156 115.15625 C 116.5 110.0625 126.089844 104.285156 137.164062 101.761719 C 148.074219 99.273438 167.914062 97.878906 186.535156 98.285156 C 187.117188 98.296875 187.691406 98.3125 188.265625 98.328125 L 192.6875 95.648438 C 171.640625 94.707031 148.523438 96.238281 136.53125 98.972656 C 135.914062 99.113281 135.300781 99.265625 134.691406 99.429688 L 94.480469 99.429688 L 126.171875 102.308594 C 118.839844 105.316406 112.226562 109.296875 106.566406 112.703125 C 99.386719 117.027344 93.183594 120.761719 88.835938 120.550781 L 88.179688 120.523438 L 83.71875 125.289062 C 78.15625 127.199219 76.453125 137.234375 76.152344 139.378906 C 75.792969 141.933594 75.347656 145.652344 74.992188 148.644531 C 74.957031 148.929688 74.921875 149.210938 74.886719 149.488281 L 48.285156 149.488281 L 74.453125 153.402344 C 74.585938 155.898438 76.804688 164.964844 79.546875 166.066406 C 81.207031 166.734375 88.882812 169.15625 91.699219 170.042969 C 92.523438 174.535156 94.34375 178.230469 96.695312 180.320312 L 61.679688 180.320312 C 61.679688 180.320312 99.824219 183.742188 139.824219 186.15625 L 144.253906 180.320312 Z M 98.5 155.367188 C 98.5625 156.691406 98.65625 158.636719 98.710938 159.855469 C 98.296875 160.195312 97.925781 160.683594 97.617188 161.28125 C 96.988281 160.804688 95.988281 160.042969 95.304688 159.527344 C 96.050781 157.535156 97.179688 156.035156 98.5 155.367188 Z M 102.519531 161.324219 C 102.21875 160.71875 101.851562 160.226562 101.4375 159.882812 C 101.496094 158.65625 101.589844 156.703125 101.652344 155.382812 C 102.96875 156.066406 104.089844 157.570312 104.832031 159.574219 C 104.144531 160.089844 103.144531 160.847656 102.519531 161.324219 Z M 105.785156 164.960938 C 105.785156 165.0625 105.789062 165.164062 105.789062 165.265625 C 105.789062 167.675781 105.328125 169.890625 104.554688 171.644531 C 104.0625 170.625 103.351562 169.148438 102.910156 168.242188 C 103.132812 167.5625 103.277344 166.800781 103.335938 165.984375 C 103.992188 165.710938 105.058594 165.265625 105.785156 164.960938 Z M 101.777344 165.265625 C 101.777344 166.96875 101.007812 168.351562 100.058594 168.351562 C 99.109375 168.351562 98.339844 166.96875 98.339844 165.265625 C 98.339844 163.5625 99.109375 162.183594 100.058594 162.183594 C 101.007812 162.183594 101.777344 163.5625 101.777344 165.265625 Z M 102 174.945312 C 101.394531 175.335938 100.742188 175.550781 100.058594 175.550781 C 99.367188 175.550781 98.707031 175.335938 98.09375 174.929688 C 98.480469 173.773438 99.042969 172.097656 99.390625 171.074219 C 99.605469 171.152344 99.828125 171.195312 100.058594 171.195312 C 100.28125 171.195312 100.496094 171.15625 100.703125 171.082031 C 101.050781 172.113281 101.613281 173.789062 102 174.945312 Z M 95.550781 171.609375 C 94.785156 169.859375 94.332031 167.660156 94.332031 165.269531 C 94.332031 165.148438 94.332031 165.027344 94.335938 164.90625 C 95.0625 165.210938 96.121094 165.65625 96.777344 165.929688 C 96.828125 166.75 96.972656 167.515625 97.191406 168.199219 C 96.753906 169.113281 96.039062 170.59375 95.550781 171.609375 Z M 101.027344 179.4375 C 99.183594 179.4375 97.488281 178.339844 96.136719 176.5 C 97.273438 177.78125 98.617188 178.527344 100.058594 178.527344 C 104.136719 178.527344 107.441406 172.585938 107.441406 165.265625 C 107.441406 157.945312 104.136719 152.007812 100.058594 152.007812 C 99.289062 152.007812 98.546875 152.21875 97.847656 152.609375 C 98.824219 151.871094 99.894531 151.457031 101.027344 151.457031 C 105.433594 151.457031 109.003906 157.71875 109.003906 165.445312 C 109.003906 173.171875 105.433594 179.4375 101.027344 179.4375 Z M 101.027344 179.4375 " fill-opacity="1" fill-rule="nonzero"/></g><path fill="#ffffff" d="M 146.832031 101.695312 C 134.8125 102.203125 122.492188 108.636719 119.332031 111.292969 C 116.171875 113.949219 105.605469 123.175781 105.605469 123.175781 L 145.195312 124.417969 L 172.8125 107.691406 C 167.015625 101.476562 160.664062 101.105469 146.832031 101.695312 Z M 146.832031 101.695312 " fill-opacity="1" fill-rule="nonzero"/><g clip-path="url(#929c71693e)"><path fill="#ffffff" d="M 133.335938 201.449219 L 174.039062 147.816406 L 149.988281 126.285156 L 229.183594 78.304688 L 185.167969 128.335938 L 209.105469 148.644531 Z M 133.335938 201.449219 " fill-opacity="1" fill-rule="nonzero"/></g><path fill="#2a4829" d="M 91.546875 42.898438 C 91.226562 41.964844 90.996094 41.011719 90.859375 40.039062 C 90.722656 39.0625 90.679688 38.082031 90.734375 37.101562 C 90.785156 36.117188 90.929688 35.148438 91.167969 34.191406 C 91.40625 33.238281 91.734375 32.3125 92.152344 31.421875 C 92.570312 30.53125 93.070312 29.6875 93.648438 28.894531 C 94.230469 28.097656 94.878906 27.367188 95.601562 26.699219 C 96.320312 26.03125 97.101562 25.4375 97.933594 24.921875 C 98.769531 24.40625 99.648438 23.972656 100.566406 23.625 C 107.636719 21.378906 114.78125 19.410156 122 17.714844 C 129.222656 16.023438 136.496094 14.609375 143.824219 13.480469 C 151.152344 12.347656 158.515625 11.503906 165.910156 10.941406 C 173.300781 10.378906 180.707031 10.105469 188.121094 10.117188 C 195.539062 10.128906 202.941406 10.425781 210.332031 11.011719 C 217.726562 11.597656 225.082031 12.464844 232.410156 13.621094 C 239.734375 14.773438 247.003906 16.210938 254.21875 17.925781 C 261.433594 19.644531 268.574219 21.636719 275.632812 23.90625 C 276.550781 24.253906 277.425781 24.691406 278.261719 25.210938 C 279.09375 25.730469 279.871094 26.324219 280.589844 26.996094 C 281.308594 27.664062 281.957031 28.398438 282.535156 29.195312 C 283.113281 29.992188 283.609375 30.835938 284.023438 31.726562 C 284.4375 32.621094 284.761719 33.546875 285 34.5 C 285.234375 35.457031 285.375 36.425781 285.425781 37.410156 C 285.472656 38.394531 285.429688 39.375 285.289062 40.347656 C 285.148438 41.324219 284.917969 42.273438 284.59375 43.203125 L 273.800781 71.730469 C 273.636719 72.214844 273.445312 72.6875 273.234375 73.152344 C 273.023438 73.617188 272.789062 74.066406 272.53125 74.507812 C 272.273438 74.949219 271.996094 75.375 271.695312 75.785156 C 271.398438 76.199219 271.078125 76.59375 270.738281 76.976562 C 270.398438 77.355469 270.042969 77.71875 269.664062 78.0625 C 269.289062 78.40625 268.898438 78.730469 268.492188 79.035156 C 268.082031 79.339844 267.660156 79.625 267.222656 79.886719 C 266.789062 80.148438 266.339844 80.386719 265.878906 80.605469 C 265.417969 80.820312 264.949219 81.015625 264.46875 81.183594 C 263.988281 81.355469 263.503906 81.5 263.007812 81.621094 C 262.515625 81.742188 262.015625 81.835938 261.511719 81.90625 C 261.007812 81.976562 260.5 82.023438 259.992188 82.042969 C 259.484375 82.0625 258.976562 82.054688 258.46875 82.023438 C 257.960938 81.992188 257.457031 81.9375 256.953125 81.855469 C 256.453125 81.773438 255.957031 81.664062 255.464844 81.53125 C 254.972656 81.398438 254.492188 81.242188 254.015625 81.0625 C 243.320312 77.792969 232.441406 75.324219 221.382812 73.664062 C 210.328125 72 199.207031 71.160156 188.027344 71.144531 C 176.84375 71.125 165.722656 71.929688 154.660156 73.554688 C 143.59375 75.183594 132.710938 77.617188 122.003906 80.851562 C 121.527344 81.03125 121.046875 81.1875 120.554688 81.316406 C 120.0625 81.449219 119.566406 81.554688 119.0625 81.632812 C 118.558594 81.714844 118.054688 81.769531 117.546875 81.800781 C 117.039062 81.832031 116.53125 81.835938 116.023438 81.8125 C 115.515625 81.792969 115.007812 81.746094 114.507812 81.671875 C 114.003906 81.601562 113.503906 81.503906 113.011719 81.382812 C 112.515625 81.257812 112.03125 81.113281 111.550781 80.941406 C 111.070312 80.769531 110.601562 80.574219 110.140625 80.355469 C 109.683594 80.136719 109.234375 79.898438 108.800781 79.632812 C 108.363281 79.371094 107.941406 79.085938 107.535156 78.777344 C 107.128906 78.472656 106.738281 78.148438 106.363281 77.800781 C 105.988281 77.457031 105.632812 77.09375 105.292969 76.710938 C 104.957031 76.332031 104.636719 75.933594 104.339844 75.519531 C 104.042969 75.105469 103.765625 74.679688 103.507812 74.238281 C 103.253906 73.796875 103.019531 73.34375 102.808594 72.878906 C 102.597656 72.414062 102.414062 71.941406 102.25 71.457031 Z M 91.546875 42.898438 " fill-opacity="1" fill-rule="nonzero"/><g fill="#ffffff" fill-opacity="1"><g transform="translate(112.611752, 60.111512)"><g><path d="M -0.0351562 0.0078125 L 12.171875 -2.78125 L 12.832031 -7.214844 L 24.519531 -9.890625 L 27.042969 -6.183594 L 39.285156 -8.984375 L 20.582031 -32.734375 L 6.894531 -29.605469 Z M 13.390625 -13.960938 L 15.113281 -24.125 L 15.1875 -24.144531 L 21.085938 -15.722656 Z M 13.390625 -13.960938 "/></g></g></g><g fill="#ffffff" fill-opacity="1"><g transform="translate(150.61798, 51.33527)"><g><path d="M 19.914062 -0.808594 C 31.726562 -1.625 37.953125 -6.734375 37.371094 -15.140625 L 36.347656 -29.90625 L 24.234375 -29.066406 L 25.203125 -15.058594 C 25.449219 -11.5 23.335938 -9.605469 19.324219 -9.328125 C 15.3125 -9.046875 12.957031 -10.636719 12.710938 -14.195312 L 11.742188 -28.199219 L -0.375 -27.363281 L 0.648438 -12.597656 C 1.230469 -4.195312 8.101562 0.0078125 19.914062 -0.808594 Z M 19.914062 -0.808594 "/></g></g></g><g fill="#ffffff" fill-opacity="1"><g transform="translate(189.181278, 48.834377)"><g><path d="M 10.21875 0.734375 L 22.332031 1.601562 L 23.691406 -17.324219 L 33.53125 -16.617188 L 34.128906 -24.945312 L 2.335938 -27.226562 L 1.738281 -18.898438 L 11.578125 -18.191406 Z M 10.21875 0.734375 "/></g></g></g><g fill="#ffffff" fill-opacity="1"><g transform="translate(220.566362, 50.603401)"><g><path d="M 20.90625 5.625 C 32.984375 8.316406 42.164062 4.449219 44.082031 -4.179688 C 46.003906 -12.8125 39.332031 -20.207031 27.257812 -22.894531 C 15.179688 -25.582031 6 -21.71875 4.078125 -13.085938 C 2.160156 -4.457031 8.832031 2.9375 20.90625 5.625 Z M 22.722656 -2.523438 C 17.792969 -3.621094 15.109375 -6.746094 15.933594 -10.449219 C 16.757812 -14.152344 20.515625 -15.84375 25.441406 -14.746094 C 30.367188 -13.648438 33.054688 -10.523438 32.230469 -6.820312 C 31.40625 -3.117188 27.648438 -1.425781 22.722656 -2.523438 Z M 22.722656 -2.523438 "/></g></g></g><path fill="#2a4829" d="M 366.484375 217.070312 C 366.792969 217.535156 367.078125 218.015625 367.339844 218.507812 C 367.601562 219.003906 367.839844 219.507812 368.054688 220.027344 C 368.269531 220.542969 368.457031 221.070312 368.621094 221.605469 C 368.78125 222.140625 368.917969 222.683594 369.03125 223.234375 C 369.140625 223.78125 369.226562 224.335938 369.28125 224.890625 C 369.339844 225.449219 369.371094 226.007812 369.375 226.566406 C 369.378906 227.125 369.355469 227.6875 369.304688 228.242188 C 369.253906 228.800781 369.179688 229.355469 369.074219 229.90625 C 368.972656 230.457031 368.84375 231 368.6875 231.539062 C 368.53125 232.074219 368.347656 232.605469 368.140625 233.125 C 367.933594 233.644531 367.703125 234.152344 367.449219 234.652344 C 367.191406 235.148438 366.914062 235.632812 366.609375 236.105469 C 366.308594 236.574219 365.984375 237.027344 365.636719 237.46875 C 365.292969 237.90625 364.925781 238.328125 364.539062 238.734375 C 364.152344 239.136719 363.746094 239.519531 363.320312 239.886719 C 362.898438 240.25 362.457031 240.59375 362 240.914062 C 358.757812 242.949219 355.484375 244.925781 352.175781 246.847656 C 348.867188 248.765625 345.523438 250.628906 342.148438 252.433594 C 338.777344 254.234375 335.371094 255.980469 331.9375 257.664062 C 328.5 259.347656 325.039062 260.972656 321.546875 262.535156 C 318.054688 264.097656 314.539062 265.597656 310.996094 267.039062 C 307.453125 268.480469 303.882812 269.855469 300.292969 271.171875 C 296.703125 272.488281 293.089844 273.738281 289.453125 274.929688 C 285.820312 276.117188 282.164062 277.242188 278.488281 278.304688 C 274.816406 279.363281 271.125 280.359375 267.414062 281.292969 C 263.707031 282.222656 259.984375 283.089844 256.246094 283.894531 C 252.503906 284.695312 248.753906 285.429688 244.988281 286.101562 C 241.226562 286.773438 237.449219 287.375 233.664062 287.914062 C 229.878906 288.453125 226.085938 288.925781 222.28125 289.332031 C 218.480469 289.738281 214.671875 290.078125 210.859375 290.347656 C 207.046875 290.621094 203.226562 290.828125 199.40625 290.96875 C 195.585938 291.105469 191.765625 291.179688 187.941406 291.183594 C 184.117188 291.191406 180.296875 291.128906 176.472656 291 C 172.652344 290.871094 168.835938 290.675781 165.019531 290.414062 C 161.207031 290.152344 157.398438 289.824219 153.59375 289.429688 C 149.789062 289.035156 145.996094 288.574219 142.207031 288.046875 C 138.421875 287.519531 134.644531 286.925781 130.878906 286.265625 C 127.113281 285.605469 123.359375 284.878906 119.617188 284.089844 C 115.875 283.296875 112.148438 282.441406 108.4375 281.519531 C 104.726562 280.597656 101.03125 279.613281 97.355469 278.5625 C 93.679688 277.511719 90.019531 276.398438 86.382812 275.21875 C 82.746094 274.039062 79.128906 272.796875 75.53125 271.492188 C 71.9375 270.1875 68.367188 268.820312 64.820312 267.390625 C 61.269531 265.960938 57.75 264.46875 54.253906 262.917969 C 50.757812 261.363281 47.289062 259.75 43.851562 258.074219 C 40.410156 256.402344 37 254.667969 33.621094 252.875 C 30.242188 251.078125 26.894531 249.226562 23.582031 247.316406 C 20.265625 245.40625 16.984375 243.4375 13.738281 241.414062 C 13.28125 241.09375 12.839844 240.75 12.414062 240.386719 C 11.992188 240.023438 11.585938 239.640625 11.195312 239.238281 C 10.808594 238.835938 10.441406 238.414062 10.09375 237.976562 C 9.746094 237.539062 9.417969 237.085938 9.117188 236.613281 C 8.8125 236.144531 8.53125 235.660156 8.273438 235.164062 C 8.015625 234.667969 7.785156 234.160156 7.574219 233.640625 C 7.367188 233.121094 7.183594 232.59375 7.027344 232.054688 C 6.871094 231.515625 6.738281 230.972656 6.632812 230.425781 C 6.527344 229.875 6.449219 229.320312 6.398438 228.761719 C 6.347656 228.207031 6.320312 227.644531 6.324219 227.085938 C 6.324219 226.527344 6.355469 225.96875 6.410156 225.410156 C 6.46875 224.855469 6.550781 224.300781 6.660156 223.75 C 6.769531 223.203125 6.902344 222.660156 7.066406 222.125 C 7.226562 221.585938 7.414062 221.0625 7.625 220.542969 C 7.839844 220.023438 8.074219 219.519531 8.335938 219.023438 C 8.597656 218.527344 8.882812 218.046875 9.1875 217.578125 L 29.039062 189.058594 C 29.355469 188.570312 29.695312 188.097656 30.058594 187.644531 C 30.421875 187.191406 30.808594 186.757812 31.214844 186.34375 C 31.621094 185.925781 32.046875 185.535156 32.492188 185.160156 C 32.9375 184.789062 33.402344 184.441406 33.882812 184.113281 C 34.363281 183.789062 34.859375 183.488281 35.367188 183.214844 C 35.878906 182.9375 36.402344 182.6875 36.9375 182.464844 C 37.476562 182.242188 38.019531 182.046875 38.574219 181.878906 C 39.132812 181.710938 39.691406 181.570312 40.261719 181.460938 C 40.832031 181.347656 41.40625 181.265625 41.984375 181.210938 C 42.558594 181.160156 43.140625 181.132812 43.71875 181.136719 C 44.300781 181.140625 44.878906 181.175781 45.453125 181.238281 C 46.03125 181.300781 46.601562 181.394531 47.171875 181.511719 C 47.738281 181.632812 48.296875 181.78125 48.851562 181.957031 C 49.402344 182.132812 49.945312 182.339844 50.480469 182.570312 C 51.011719 182.800781 51.53125 183.058594 52.035156 183.339844 C 52.542969 183.625 53.035156 183.933594 53.511719 184.265625 C 58.546875 187.3125 63.683594 190.179688 68.917969 192.875 C 74.148438 195.570312 79.46875 198.085938 84.871094 200.417969 C 90.277344 202.75 95.75 204.894531 101.300781 206.855469 C 106.851562 208.8125 112.457031 210.582031 118.128906 212.15625 C 123.796875 213.734375 129.511719 215.117188 135.273438 216.300781 C 141.039062 217.488281 146.832031 218.476562 152.664062 219.269531 C 158.492188 220.058594 164.34375 220.652344 170.214844 221.042969 C 176.082031 221.4375 181.960938 221.628906 187.84375 221.621094 C 193.726562 221.613281 199.601562 221.402344 205.46875 220.992188 C 211.339844 220.585938 217.1875 219.976562 223.015625 219.167969 C 228.839844 218.359375 234.632812 217.355469 240.394531 216.152344 C 246.152344 214.949219 251.863281 213.550781 257.527344 211.957031 C 263.195312 210.367188 268.796875 208.582031 274.339844 206.605469 C 279.882812 204.632812 285.355469 202.472656 290.75 200.121094 C 296.148438 197.773438 301.460938 195.246094 306.683594 192.535156 C 311.910156 189.824219 317.039062 186.941406 322.066406 183.882812 C 322.542969 183.546875 323.03125 183.238281 323.539062 182.953125 C 324.042969 182.667969 324.5625 182.410156 325.09375 182.175781 C 325.625 181.945312 326.167969 181.738281 326.71875 181.558594 C 327.273438 181.382812 327.832031 181.230469 328.398438 181.109375 C 328.964844 180.988281 329.539062 180.894531 330.113281 180.832031 C 330.691406 180.765625 331.269531 180.730469 331.847656 180.726562 C 332.429688 180.71875 333.007812 180.742188 333.585938 180.792969 C 334.164062 180.847656 334.738281 180.929688 335.304688 181.039062 C 335.875 181.148438 336.4375 181.285156 336.996094 181.453125 C 337.550781 181.617188 338.097656 181.8125 338.632812 182.035156 C 339.167969 182.253906 339.695312 182.503906 340.207031 182.777344 C 340.714844 183.050781 341.214844 183.351562 341.695312 183.675781 C 342.175781 184 342.640625 184.347656 343.089844 184.71875 C 343.535156 185.089844 343.960938 185.480469 344.371094 185.894531 C 344.777344 186.308594 345.164062 186.742188 345.527344 187.195312 C 345.890625 187.644531 346.234375 188.117188 346.550781 188.601562 Z M 366.484375 217.070312 " fill-opacity="1" fill-rule="nonzero"/><g fill="#ffffff" fill-opacity="1"><g transform="translate(28.620838, 222.066619)"><g><path d="M -0.0390625 -0.0195312 L 12.699219 6.507812 L 16.53125 3.113281 L 28.730469 9.363281 L 28.210938 14.460938 L 40.988281 21.007812 L 42.070312 -13.527344 L 27.789062 -20.84375 Z M 21.980469 -2.378906 L 30.960938 -10.007812 L 31.035156 -9.96875 L 30.007812 1.734375 Z M 21.980469 -2.378906 "/></g></g></g><g fill="#ffffff" fill-opacity="1"><g transform="translate(71.15557, 243.716711)"><g><path d="M 2.058594 0.675781 L 24.269531 7.96875 C 35.929688 11.796875 44.1875 8.617188 47.3125 -0.898438 C 50.4375 -10.417969 45.671875 -17.871094 34.011719 -21.699219 L 11.800781 -28.992188 Z M 17.675781 -3.78125 L 21.734375 -16.144531 L 29.109375 -13.722656 C 33.886719 -12.152344 35.835938 -9.050781 34.539062 -5.09375 C 33.238281 -1.136719 29.828125 0.207031 25.050781 -1.363281 Z M 17.675781 -3.78125 "/></g></g></g><g fill="#ffffff" fill-opacity="1"><g transform="translate(116.45709, 258.447936)"><g><path d="M 14.898438 2.421875 L 30.308594 4.929688 L 50.257812 -23.464844 L 36.175781 -25.753906 L 24.460938 -7.492188 L 24.375 -7.503906 L 19.050781 -28.539062 L 5.011719 -30.820312 Z M 14.898438 2.421875 "/></g></g></g><g fill="#ffffff" fill-opacity="1"><g transform="translate(162.908786, 265.177936)"><g><path d="M 2.164062 0.113281 L 15.9375 0.835938 L 17.574219 -30.34375 L 3.804688 -31.070312 Z M 2.164062 0.113281 "/></g></g></g><g fill="#ffffff" fill-opacity="1"><g transform="translate(182.067549, 266.73373)"><g><path d="M 20.746094 -0.15625 C 33.136719 -0.769531 40.75 -5.75 40.375 -12.417969 C 40.082031 -18.351562 35.171875 -21.0625 24.035156 -21.507812 L 18.902344 -21.691406 C 15.207031 -21.8125 13.578125 -22.207031 13.585938 -22.945312 C 13.570312 -24.117188 16.488281 -24.871094 20.601562 -25.117188 C 25.058594 -25.382812 30.351562 -24.601562 34.34375 -22.929688 L 37.15625 -31.015625 C 32.6875 -32.707031 26.394531 -33.480469 20.070312 -33.167969 C 7.855469 -32.5625 -0.0976562 -28.304688 0.207031 -21.285156 C 0.492188 -15.484375 5.230469 -12.808594 15.976562 -12.339844 L 20.980469 -12.109375 C 25.15625 -11.96875 26.960938 -11.492188 27.007812 -10.582031 C 27.0625 -9.457031 24.792969 -8.824219 21.066406 -8.640625 C 15.566406 -8.367188 8.773438 -9.640625 4.332031 -11.632812 L 0.710938 -3.160156 C 5.550781 -1.011719 13.816406 0.1875 20.746094 -0.15625 Z M 20.746094 -0.15625 "/></g></g></g><g fill="#ffffff" fill-opacity="1"><g transform="translate(225.507807, 264.754335)"><g><path d="M 24.425781 -3.957031 C 38.269531 -6.828125 46.019531 -15.167969 43.964844 -25.0625 C 41.914062 -34.957031 31.488281 -39.527344 17.644531 -36.65625 C 3.800781 -33.785156 -3.949219 -25.445312 -1.894531 -15.550781 C 0.15625 -5.65625 10.582031 -1.085938 24.425781 -3.957031 Z M 22.488281 -13.300781 C 16.839844 -12.128906 12.574219 -14.121094 11.691406 -18.371094 C 10.8125 -22.617188 13.933594 -26.140625 19.582031 -27.3125 C 25.230469 -28.484375 29.496094 -26.492188 30.378906 -22.242188 C 31.257812 -17.996094 28.136719 -14.472656 22.488281 -13.300781 Z M 22.488281 -13.300781 "/></g></g></g><g fill="#ffffff" fill-opacity="1"><g transform="translate(275.548624, 254.087131)"><g><path d="M 34.847656 -12.441406 C 37.683594 -13.53125 41.066406 -15.851562 42.285156 -17.757812 L 38.675781 -22.085938 C 38.367188 -21.550781 37.488281 -20.933594 36.882812 -20.703125 C 35.667969 -20.234375 34.742188 -20.34375 33.855469 -20.839844 L 30.882812 -22.535156 C 29.871094 -23.121094 28.8125 -23.457031 27.921875 -23.347656 L 27.90625 -23.390625 C 32.800781 -26.613281 34.632812 -30.800781 32.953125 -35.175781 C 30.609375 -41.289062 24.726562 -42.933594 16.46875 -39.765625 L -9.160156 -29.929688 L 2.023438 -0.777344 L 14.980469 -5.75 L 11.5625 -14.65625 L 15.003906 -15.976562 C 16.988281 -16.738281 19.058594 -16.789062 20.992188 -15.625 L 23.234375 -14.257812 C 26.160156 -12.453125 29.746094 -10.484375 34.847656 -12.441406 Z M 8.921875 -21.539062 L 6.589844 -27.613281 L 15.09375 -30.875 C 17.6875 -31.871094 19.5625 -31.335938 20.308594 -29.394531 C 21.054688 -27.449219 20.015625 -25.796875 17.382812 -24.785156 Z M 8.921875 -21.539062 "/></g></g></g><g fill="#ffffff" fill-opacity="1"><g transform="translate(319.411932, 236.658888)"><g><path d="M 6.414062 -9.90625 L 15.9375 -15.085938 L 13.035156 -20.417969 L 21.074219 -24.789062 L 17.554688 -31.265625 L 9.515625 -26.894531 L 6.613281 -32.230469 L -2.910156 -27.050781 L -0.0117188 -21.714844 L -7.972656 -17.386719 L -4.453125 -10.910156 L 3.511719 -15.238281 Z M 6.414062 -9.90625 "/></g></g></g></svg>