<svg xmlns="http://www.w3.org/2000/svg" xmlns:xlink="http://www.w3.org/1999/xlink" width="300" zoomAndPan="magnify" viewBox="0 0 224.87999 749.999995" height="1000" preserveAspectRatio="xMidYMid meet" version="1.0"><defs><clipPath id="41225ff780"><path d="M 0 0.199219 L 156 0.199219 L 156 749.800781 L 0 749.800781 Z M 0 0.199219 " clip-rule="nonzero"/></clipPath><clipPath id="47ffcd89d3"><path d="M -255.148438 325.449219 L 128.128906 -24.082031 L 537.261719 424.554688 L 153.984375 774.082031 Z M -255.148438 325.449219 " clip-rule="nonzero"/></clipPath><clipPath id="21377e07e2"><path d="M -255.148438 325.449219 L 128.128906 -24.082031 L 537.261719 424.554688 L 153.984375 774.082031 Z M -255.148438 325.449219 " clip-rule="nonzero"/></clipPath><clipPath id="968185182d"><path d="M 0 0.199219 L 132 0.199219 L 132 146 L 0 146 Z M 0 0.199219 " clip-rule="nonzero"/></clipPath><clipPath id="ea4c1f5240"><path d="M -86.75 66.070312 L 58.917969 -66.773438 L 131.652344 12.984375 L -14.015625 145.828125 Z M -86.75 66.070312 " clip-rule="nonzero"/></clipPath><clipPath id="46185b6f97"><path d="M -86.75 66.070312 L 207.910156 -202.644531 L 522.082031 141.863281 L 227.421875 410.578125 Z M -86.75 66.070312 " clip-rule="nonzero"/></clipPath><clipPath id="50f55953cf"><path d="M 0 527 L 141 527 L 141 749.800781 L 0 749.800781 Z M 0 527 " clip-rule="nonzero"/></clipPath><clipPath id="eda2dfc81b"><path d="M 13.757812 836.527344 L -127.3125 604.726562 L -0.527344 527.566406 L 140.546875 759.367188 Z M 13.757812 836.527344 " clip-rule="nonzero"/></clipPath><clipPath id="6b0afa8289"><path d="M 13.757812 836.527344 L -271.5 367.800781 L 277.269531 33.828125 L 562.527344 502.558594 Z M 13.757812 836.527344 " clip-rule="nonzero"/></clipPath></defs><g clip-path="url(#41225ff780)"><g clip-path="url(#47ffcd89d3)"><g clip-path="url(#21377e07e2)"><path fill="#543fff" d="M 154.546875 773.296875 C 152.949219 772.917969 152.265625 771.925781 151.484375 771.066406 C 17.375 624.015625 -116.730469 476.964844 -250.832031 329.90625 C -254.492188 325.890625 -254.484375 325.878906 -250.480469 322.226562 C -125.042969 207.835938 0.386719 93.453125 125.835938 -20.921875 C 126.671875 -21.6875 127.492188 -23.21875 128.519531 -22.855469 C 129.6875 -22.445312 129.585938 -20.710938 129.722656 -19.5 C 130.59375 -12.0625 132.5 -4.8125 133.746094 2.558594 C 134.960938 9.726562 136.488281 16.878906 137.367188 24.09375 C 137.980469 29.136719 138.609375 34.195312 138.597656 39.355469 C 138.578125 45.890625 139.492188 52.421875 139.929688 58.964844 C 140.519531 67.789062 139.53125 76.542969 138.515625 85.28125 C 137.976562 89.914062 137.542969 94.605469 136.382812 99.105469 C 134.648438 105.871094 133.011719 112.675781 130.917969 119.355469 C 128.441406 127.257812 125.46875 135 122.058594 142.480469 C 118.675781 149.894531 115.320312 157.335938 111.5625 164.605469 C 106.28125 174.832031 102.0625 185.59375 96.90625 195.886719 C 93.894531 201.910156 91.042969 208.046875 87.71875 213.894531 C 84.234375 220.035156 81.933594 226.703125 78.488281 232.796875 C 75.195312 238.625 73.101562 244.988281 69.984375 250.84375 C 65.664062 258.957031 62.171875 267.4375 58.417969 275.773438 C 54.660156 284.109375 51.203125 292.621094 48.070312 301.261719 C 45.945312 307.109375 44.21875 313.054688 42.449219 318.972656 C 40.503906 325.488281 39.074219 332.171875 37.988281 338.933594 C 36.347656 349.148438 35.171875 359.410156 34.695312 369.722656 C 34.34375 377.378906 34.492188 385.066406 34.804688 392.730469 C 35.226562 403.078125 36.917969 413.273438 39.152344 423.316406 C 41.359375 433.246094 44.484375 442.972656 48.488281 452.402344 C 52.320312 461.414062 56.402344 470.332031 60.453125 479.238281 C 62.925781 484.65625 65.683594 490.042969 68.613281 495.289062 C 69.75 497.3125 70.496094 499.558594 71.613281 501.601562 C 76.894531 511.265625 82.925781 520.5 87.863281 530.367188 C 89.496094 533.640625 91.765625 536.597656 93.472656 539.835938 C 96.152344 544.90625 98.832031 550 101.089844 555.265625 C 103.714844 561.386719 107.273438 567.023438 109.820312 573.171875 C 114.285156 583.949219 119.777344 594.257812 124.207031 605.074219 C 126.953125 611.792969 129.183594 618.722656 132.1875 625.308594 C 135.945312 633.53125 138.417969 642.183594 141.191406 650.714844 C 143.820312 658.820312 146.128906 667.054688 148.160156 675.367188 C 151.039062 687.132812 152.335938 699.09375 153.609375 711.066406 C 154.203125 716.671875 154.191406 722.34375 154.804688 727.949219 C 156.4375 743.011719 155.261719 758.011719 154.546875 773.296875 Z M 154.546875 773.296875 " fill-opacity="1" fill-rule="nonzero"/></g></g></g><g clip-path="url(#968185182d)"><g clip-path="url(#ea4c1f5240)"><g clip-path="url(#46185b6f97)"><path fill="#543fff" d="M 227.859375 409.976562 C 226.632812 409.6875 226.105469 408.921875 225.507812 408.261719 C 122.519531 295.339844 19.539062 182.417969 -83.4375 69.488281 C -86.25 66.40625 -86.242188 66.398438 -83.164062 63.589844 C 13.269531 -24.351562 109.699219 -112.289062 206.144531 -200.21875 C 206.785156 -200.804688 207.417969 -201.984375 208.203125 -201.703125 C 209.105469 -201.390625 209.023438 -200.058594 209.128906 -199.128906 C 209.796875 -193.414062 211.257812 -187.84375 212.210938 -182.183594 C 213.140625 -176.671875 214.3125 -171.179688 214.984375 -165.636719 C 215.453125 -161.761719 215.933594 -157.875 215.921875 -153.914062 C 215.90625 -148.890625 216.605469 -143.875 216.9375 -138.847656 C 217.386719 -132.066406 216.621094 -125.339844 215.839844 -118.628906 C 215.425781 -115.066406 215.085938 -111.460938 214.195312 -108.003906 C 212.859375 -102.804688 211.601562 -97.578125 209.988281 -92.441406 C 208.078125 -86.371094 205.792969 -80.421875 203.167969 -74.671875 C 200.566406 -68.972656 197.984375 -63.257812 195.09375 -57.667969 C 191.03125 -49.8125 187.785156 -41.539062 183.820312 -33.628906 C 181.503906 -29 179.308594 -24.285156 176.753906 -19.792969 C 174.074219 -15.070312 172.300781 -9.949219 169.652344 -5.261719 C 167.117188 -0.78125 165.507812 4.105469 163.109375 8.605469 C 159.785156 14.839844 157.097656 21.359375 154.210938 27.765625 C 151.320312 34.171875 148.660156 40.714844 146.25 47.351562 C 144.613281 51.847656 143.285156 56.414062 141.921875 60.960938 C 140.421875 65.96875 139.324219 71.105469 138.484375 76.300781 C 137.222656 84.148438 136.3125 92.035156 135.941406 99.957031 C 135.667969 105.839844 135.777344 111.746094 136.015625 117.636719 C 136.335938 125.582031 137.632812 133.417969 139.34375 141.132812 C 141.035156 148.761719 143.433594 156.230469 146.503906 163.472656 C 149.445312 170.398438 152.578125 177.246094 155.6875 184.089844 C 157.582031 188.25 159.703125 192.386719 161.949219 196.414062 C 162.820312 197.96875 163.394531 199.695312 164.25 201.265625 C 168.304688 208.6875 172.933594 215.78125 176.722656 223.359375 C 177.980469 225.871094 179.71875 228.144531 181.03125 230.632812 C 183.085938 234.527344 185.144531 238.4375 186.878906 242.484375 C 188.890625 247.183594 191.621094 251.511719 193.578125 256.238281 C 197.003906 264.515625 201.21875 272.433594 204.617188 280.742188 C 206.726562 285.902344 208.4375 291.222656 210.742188 296.285156 C 213.625 302.601562 215.523438 309.246094 217.648438 315.796875 C 219.667969 322.027344 221.433594 328.351562 222.996094 334.738281 C 225.199219 343.777344 226.191406 352.964844 227.164062 362.164062 C 227.621094 366.472656 227.609375 370.828125 228.074219 375.136719 C 229.324219 386.703125 228.414062 398.230469 227.859375 409.976562 Z M 227.859375 409.976562 " fill-opacity="1" fill-rule="nonzero"/></g></g></g><g clip-path="url(#50f55953cf)"><g clip-path="url(#eda2dfc81b)"><g clip-path="url(#6b0afa8289)"><path fill="#543fff" d="M 561.828125 501.808594 C 561.113281 503.394531 559.941406 503.902344 558.894531 504.539062 C 379.019531 614.015625 199.140625 723.488281 19.257812 832.949219 C 14.347656 835.9375 14.339844 835.925781 11.359375 831.027344 C -82 677.628906 -175.351562 524.234375 -268.6875 370.824219 C -269.3125 369.796875 -270.738281 368.636719 -270.152344 367.644531 C -269.488281 366.515625 -267.710938 366.972656 -266.425781 367.074219 C -258.523438 367.675781 -250.605469 367.164062 -242.703125 367.363281 C -235.011719 367.550781 -227.277344 367.417969 -219.605469 367.960938 C -214.246094 368.347656 -208.863281 368.71875 -203.511719 369.777344 C -196.726562 371.117188 -189.761719 371.492188 -182.878906 372.363281 C -173.59375 373.535156 -164.707031 376.335938 -155.839844 379.160156 C -151.136719 380.65625 -146.351562 382.058594 -141.917969 384.171875 C -135.242188 387.34375 -128.507812 390.417969 -121.996094 393.945312 C -114.292969 398.117188 -106.855469 402.769531 -99.78125 407.828125 C -92.765625 412.839844 -85.71875 417.832031 -78.933594 423.203125 C -69.386719 430.757812 -59.066406 437.320312 -49.421875 444.753906 C -43.78125 449.101562 -37.984375 453.304688 -32.585938 457.941406 C -26.914062 462.800781 -20.460938 466.542969 -14.828125 471.351562 C -9.441406 475.949219 -3.261719 479.414062 2.1875 483.835938 C 9.734375 489.960938 17.832031 495.308594 25.730469 500.894531 C 33.625 506.484375 41.761719 511.792969 50.097656 516.796875 C 55.742188 520.1875 61.5625 523.183594 67.347656 526.222656 C 73.722656 529.558594 80.371094 532.394531 87.171875 534.890625 C 97.449219 538.664062 107.863281 541.964844 118.476562 544.546875 C 126.355469 546.460938 134.363281 547.863281 142.390625 549.089844 C 153.21875 550.746094 164.148438 551.054688 175.027344 550.769531 C 185.789062 550.484375 196.519531 549.210938 207.121094 546.964844 C 217.257812 544.808594 227.347656 542.378906 237.414062 539.972656 C 243.542969 538.503906 249.695312 536.730469 255.734375 534.75 C 258.066406 533.980469 260.550781 533.660156 262.898438 532.914062 C 274.003906 529.382812 284.816406 524.996094 296.0625 521.867188 C 299.789062 520.832031 303.320312 519.074219 307.03125 517.957031 C 312.839844 516.203125 318.671875 514.449219 324.597656 513.171875 C 331.484375 511.6875 338.058594 509.132812 344.960938 507.730469 C 357.054688 505.277344 368.871094 501.664062 381 499.253906 C 388.535156 497.761719 396.179688 496.847656 403.628906 495.0625 C 412.929688 492.828125 422.414062 492.011719 431.835938 490.859375 C 440.785156 489.769531 449.804688 489.042969 458.847656 488.613281 C 471.648438 488.007812 484.332031 489.082031 497.023438 490.183594 C 502.964844 490.703125 508.851562 491.863281 514.796875 492.363281 C 530.765625 493.714844 546.105469 497.972656 561.828125 501.808594 Z M 561.828125 501.808594 " fill-opacity="1" fill-rule="nonzero"/></g></g></g></svg>